<svg id="Capa_1" enable-background="new 0 0 512 512" height="512" viewBox="0 0 512 512" width="512" xmlns="http://www.w3.org/2000/svg"><g><g><g><g><path d="m0 0v109.74l124.215 35.669 131.785-30.605 30.71-63.192-30.71-51.612z" fill="#6058ad"/><path d="m352.105 64.162-15.016-64.162h-81.089v114.804l21.804-5.064z" fill="#453f81"/></g><g><path d="m512 0h-174.911l-59.285 109.74 119.879 33.688 114.317-33.688z" fill="#b6dcfe"/></g><path d="m44.425 41.648h31.707v30h-31.707z" fill="#ffee42"/><path d="m109.429 41.648h31.706v30h-31.706z" fill="#fd3e81"/><path d="m174.433 41.648h31.707v30h-31.707z" fill="#c4e83b"/><g><path d="m0 109.74v402.26h256l30.71-204.095-30.71-198.165z" fill="#edf5ff"/><path d="m256 109.74h256v402.26h-256z" fill="#d6e8fd"/></g></g><g><g><g><path d="m152.815 456.55-30-.07.074-31.717h-68.876l62.261-108.507h36.866l-.182 78.507h25.475v30h-25.545zm-47-61.787h17.144l.069-29.998z" fill="#6058ad"/></g></g><g><g><path d="m424.388 456.55-30-.07.074-31.717h-68.876l62.262-108.507h36.866l-.182 78.507h25.475v30h-25.545zm-47-61.787h17.144l.069-29.998z" fill="#453f81"/></g></g></g><g><path d="m231.188 171.252-21.212 21.213 24.811 24.812-24.811 24.811 21.212 21.213 24.812-24.811 11.103-21.213-11.103-21.213z" fill="#22cac8"/><path d="m237.37 410.457v-53.783c0-10.273 8.357-18.631 18.63-18.631l11.103-16.377-11.103-13.623c-26.815 0-48.63 21.815-48.63 48.631v53.783c0 26.815 21.815 48.631 48.63 48.631l11.103-15.272-11.103-14.728c-10.273 0-18.63-8.358-18.63-18.631z" fill="#6058ad"/></g></g><path d="m302.024 242.088-24.811-24.811 24.811-24.812-21.212-21.213-24.812 24.812v42.426l24.812 24.811z" fill="#1daeb3"/><path d="m256 308.043v30c10.273 0 18.63 8.357 18.63 18.631v53.783c0 10.273-8.357 18.631-18.63 18.631v30c26.815 0 48.63-21.815 48.63-48.631v-53.783c0-26.816-21.815-48.631-48.63-48.631z" fill="#453f81"/></g></svg>