<svg width="244" height="169" viewBox="0 0 244 169" fill="none" xmlns="http://www.w3.org/2000/svg">
<path d="M239.762 39.8455L235.946 59.3805L233.49 56.8475L229.311 60.0001L226.117 55.8065L218.956 61.3109L212.836 50.4918L206.01 54.7191L203.303 50.7742L194.635 55.9372L192.027 50.0324L198.103 18.9239L230.679 26.034L239.762 39.8455Z" fill="#EBEBEB"/>
<path d="M230.679 26.034L239.762 39.8455L228.462 37.3799L230.679 26.034Z" fill="#DBDBDB"/>
<path d="M235.133 63.2833L229.538 91.9431L185.659 82.3674L191.214 53.9394L193.821 59.84L202.493 54.677L205.197 58.6219L212.027 54.3988L218.143 65.2179L225.308 59.7135L228.498 63.9029L232.68 60.7545L235.133 63.2833Z" fill="#EBEBEB"/>
<path d="M172.33 59.9242L127.614 62.8492L124.061 2.17477L157.267 0L169.455 10.8106L172.33 59.9242Z" fill="#EBEBEB"/>
<path d="M157.267 0L169.456 10.8106L157.941 11.5651L157.267 0Z" fill="#DBDBDB"/>
<path d="M144.886 40.8275L144.711 39.4578C144.26 36.6213 144.994 33.4476 147.327 30.1307C149.432 27.1804 150.572 25.0731 150.445 22.6792C150.301 19.9818 148.606 18.279 145.453 18.4139C143.65 18.5129 141.919 19.189 140.489 20.3527L139.113 17.0947C140.708 15.7249 143.499 14.7134 146.15 14.5659C151.904 14.2287 154.703 17.8281 154.922 21.8446C155.114 25.4398 153.351 28.1414 151.11 31.2982C149.053 34.1768 148.379 36.5496 148.67 39.2344L148.794 40.6084L144.886 40.8275ZM144.177 48.2917C144.073 46.3361 145.249 44.8863 147 44.7851C148.75 44.684 150.026 45.9821 150.13 47.9419C150.225 49.7922 149.153 51.2841 147.303 51.3937C145.536 51.4991 144.26 50.142 144.161 48.2917H144.177Z" fill="#DBDBDB"/>
<path d="M33.0378 30.5058L28.5403 28.3521L27.9143 29.8062C27.8219 30.014 27.6776 30.1912 27.4971 30.319C27.3166 30.4467 27.1066 30.52 26.8896 30.5311C26.6424 30.5397 26.396 30.565 26.1519 30.607C25.9377 30.6406 25.7188 30.6121 25.5187 30.5245C25.3185 30.4369 25.1447 30.2935 25.0156 30.1096L24.1344 28.8073L20.1193 31.8503L21.0005 33.1526C21.1231 33.3406 21.1952 33.5601 21.2092 33.788C21.2233 34.0158 21.1787 34.2433 21.0802 34.4465C20.9666 34.6783 20.8641 34.916 20.7732 35.1588C20.6942 35.3729 20.5616 35.5602 20.3895 35.7005C20.2173 35.8408 20.0123 35.929 19.7964 35.9554L18.2932 36.1113L18.7756 41.308L20.2868 41.1479C20.5035 41.1296 20.7208 41.174 20.9154 41.2765C21.11 41.379 21.2745 41.5356 21.3912 41.7295C21.455 41.8391 21.5228 41.9444 21.5946 42.0498C21.6664 42.1552 21.7381 42.2563 21.8139 42.3575C21.9515 42.5344 22.04 42.7483 22.0695 42.9752C22.0991 43.2021 22.0686 43.4333 21.9813 43.6429L21.3514 45.1097L25.8529 47.2676L26.4789 45.8051C26.5722 45.5975 26.7173 45.4206 26.8985 45.2937C27.0798 45.1667 27.2903 45.0943 27.5076 45.0844C27.752 45.0737 27.9956 45.0484 28.2372 45.0085C28.4515 44.9749 28.6704 45.0034 28.8705 45.091C29.0707 45.1786 29.2445 45.3219 29.3736 45.5058L30.2548 46.8082L34.2739 43.7652L33.3927 42.4628C33.2663 42.2766 33.1919 42.0566 33.1778 41.8279C33.1637 41.5992 33.2105 41.3709 33.3129 41.1689C33.424 40.9385 33.5238 40.7021 33.612 40.4609C33.6887 40.2452 33.8207 40.0565 33.9932 39.9158C34.1658 39.775 34.3721 39.688 34.5888 39.6643L36.1 39.5041L35.6135 34.3074L34.1024 34.4634C33.887 34.4834 33.6706 34.44 33.4771 34.3381C33.2836 34.2362 33.1205 34.0797 33.0059 33.886C32.9381 33.7764 32.8704 33.671 32.7986 33.5657C32.7268 33.4603 32.6551 33.3549 32.5793 33.258C32.4426 33.0788 32.3548 32.8637 32.3253 32.6357C32.2958 32.4077 32.3257 32.1755 32.4118 31.9641L33.0378 30.5058ZM30.486 35.3148C30.9523 36.0025 31.2151 36.821 31.2413 37.6667C31.2674 38.5124 31.0558 39.3473 30.633 40.0658C30.2103 40.7843 29.5954 41.3542 28.8663 41.7033C28.1371 42.0524 27.3264 42.1652 26.5366 42.0272C25.7469 41.8892 25.0135 41.5068 24.4294 40.9283C23.8453 40.3497 23.4366 39.6011 23.255 38.777C23.0734 37.9529 23.1271 37.0904 23.4092 36.2986C23.6914 35.5068 24.1894 34.8212 24.8402 34.3285C25.7126 33.6681 26.7975 33.401 27.8563 33.5859C28.915 33.7708 29.861 34.3927 30.486 35.3148Z" fill="#EBEBEB"/>
<path d="M236.345 99.4579L233.346 101.287L233.876 102.256C233.956 102.396 233.995 102.556 233.99 102.718C233.985 102.88 233.936 103.038 233.849 103.171C233.757 103.323 233.669 103.479 233.589 103.643C233.524 103.788 233.42 103.911 233.291 103.996C233.162 104.081 233.012 104.125 232.86 104.124H231.807V107.786H232.868C233.02 107.784 233.17 107.828 233.299 107.913C233.428 107.999 233.532 108.121 233.597 108.267C233.677 108.431 233.765 108.587 233.857 108.739C233.944 108.872 233.993 109.029 233.998 109.192C234.003 109.354 233.964 109.514 233.884 109.653L233.354 110.623L236.353 112.452L236.887 111.478C236.964 111.34 237.076 111.227 237.211 111.153C237.345 111.079 237.497 111.045 237.648 111.057H238.159C238.31 111.046 238.461 111.079 238.596 111.154C238.73 111.228 238.843 111.34 238.92 111.478L239.455 112.456L242.449 110.627L241.919 109.653C241.843 109.513 241.806 109.354 241.812 109.193C241.817 109.032 241.866 108.876 241.951 108.743C242.042 108.591 242.13 108.431 242.21 108.271C242.275 108.125 242.379 108.003 242.508 107.918C242.637 107.833 242.787 107.788 242.939 107.79H244V104.128H242.931C242.779 104.13 242.629 104.085 242.5 104C242.371 103.915 242.267 103.793 242.202 103.647C242.122 103.487 242.034 103.327 241.943 103.175C241.858 103.042 241.81 102.886 241.804 102.725C241.798 102.564 241.835 102.405 241.911 102.265L242.441 101.291L239.447 99.4621L238.912 100.423C238.835 100.561 238.723 100.674 238.588 100.748C238.454 100.823 238.302 100.856 238.151 100.845H237.896H237.64C237.488 100.855 237.337 100.822 237.202 100.747C237.067 100.673 236.954 100.561 236.875 100.423L236.345 99.4579ZM237.896 102.956C238.457 102.955 239.007 103.131 239.474 103.46C239.942 103.789 240.306 104.258 240.522 104.807C240.737 105.355 240.793 105.959 240.684 106.541C240.575 107.124 240.304 107.659 239.907 108.079C239.51 108.499 239.003 108.785 238.452 108.9C237.901 109.016 237.33 108.956 236.811 108.729C236.292 108.501 235.849 108.116 235.537 107.621C235.226 107.127 235.06 106.547 235.061 105.953C235.06 105.559 235.133 105.169 235.275 104.805C235.418 104.441 235.626 104.11 235.89 103.831C236.153 103.552 236.466 103.331 236.81 103.18C237.154 103.029 237.523 102.952 237.896 102.952V102.956Z" fill="#EBEBEB"/>
<path d="M42.1366 14.9326L39.3894 17.1579L40.0234 18.0472C40.118 18.174 40.1761 18.3267 40.191 18.4873C40.2058 18.648 40.1767 18.8097 40.1071 18.9534C40.0308 19.1175 39.9643 19.2864 39.9078 19.4592C39.8586 19.6114 39.7703 19.7461 39.6526 19.8481C39.535 19.9501 39.3927 20.0154 39.2419 20.0366L38.1893 20.1799L38.6359 23.8087L39.6885 23.6654C39.8417 23.6428 39.9979 23.6665 40.1389 23.7336C40.28 23.8007 40.4003 23.9085 40.4859 24.0447C40.5819 24.1913 40.6858 24.3321 40.7969 24.4662C40.8996 24.5856 40.9678 24.7337 40.9932 24.8928C41.0187 25.0519 41.0004 25.2155 40.9405 25.3639L40.5417 26.4007L43.7315 27.8042L44.1302 26.7674C44.1895 26.6187 44.2871 26.4905 44.4118 26.3974C44.5366 26.3042 44.6835 26.2499 44.8359 26.2406L45.0911 26.2111L45.3423 26.1689C45.4899 26.1395 45.6422 26.1535 45.7828 26.2092C45.9234 26.2649 46.0469 26.3603 46.1398 26.485L46.7897 27.3827L49.5368 25.1574L48.8949 24.2681C48.8022 24.1396 48.7452 23.9863 48.7304 23.8255C48.7156 23.6647 48.7436 23.5027 48.8112 23.3577C48.8868 23.1948 48.9533 23.0273 49.0105 22.8562C49.0597 22.704 49.148 22.5693 49.2657 22.4673C49.3833 22.3652 49.5256 22.3 49.6764 22.2788L50.729 22.1355L50.2824 18.5066L49.2298 18.6499C49.077 18.673 48.9211 18.65 48.7801 18.5836C48.639 18.5173 48.5185 18.4103 48.4324 18.2748C48.3327 18.1231 48.229 17.9798 48.1174 17.8534C48.0245 17.7314 47.9644 17.5853 47.9434 17.4303C47.9223 17.2753 47.9411 17.1172 47.9978 16.9725L48.3965 15.9357L45.2068 14.5322L44.808 15.569C44.7479 15.7172 44.6502 15.8448 44.5256 15.9378C44.401 16.0308 44.2545 16.0855 44.1023 16.0958L43.8471 16.1211L43.6119 16.1296C43.4643 16.159 43.312 16.145 43.1714 16.0893C43.0308 16.0336 42.9073 15.9382 42.8144 15.8135L42.1366 14.9326ZM44.1023 18.1905C44.6577 18.1151 45.2218 18.2152 45.7235 18.4782C46.2251 18.7412 46.6418 19.1554 46.9211 19.6685C47.2003 20.1816 47.3295 20.7706 47.2924 21.3612C47.2553 21.9519 47.0536 22.5176 46.7126 22.9872C46.3717 23.4568 45.9068 23.8091 45.3767 23.9997C44.8465 24.1903 44.2749 24.2107 43.7338 24.0583C43.1927 23.9059 42.7064 23.5875 42.3363 23.1433C41.9662 22.699 41.7288 22.1489 41.6542 21.5623C41.6043 21.1708 41.6282 20.7728 41.7245 20.3911C41.8207 20.0094 41.9873 19.6516 42.2149 19.3382C42.4424 19.0249 42.7263 18.7622 43.0502 18.5652C43.3741 18.3682 43.7317 18.2409 44.1023 18.1905Z" fill="#EBEBEB"/>
<path d="M21.6106 110.024C21.7604 105.95 21.7071 101.87 21.4511 97.8015C20.8806 89.4005 19.6685 81.062 17.8268 72.8675C16.814 68.2567 15.57 63.7217 14.2702 59.1909C14.2303 59.0518 14.023 59.0897 14.0589 59.233C18.074 75.2067 21.3674 91.686 21.1401 108.292C21.0763 112.928 20.566 117.501 20.1513 122.12C20.1513 122.242 20.3307 122.293 20.3586 122.167C21.184 118.201 21.4551 114.062 21.6106 110.024Z" fill="#EBEBEB"/>
<path d="M14.0588 59.2204C14.0588 59.2204 7.98236 75.5312 9.34199 79.3497C10.7016 83.1682 13.5086 83.9858 13.5086 83.9858C13.5086 83.9858 9.78855 89.5998 12.3882 94.8639C14.9878 100.128 20.7613 99.8794 21.16 105.847C21.1481 105.877 21.467 80.9218 14.0588 59.2204Z" fill="#EBEBEB"/>
<path d="M20.4862 95.572C20.496 95.5448 20.496 95.5148 20.4862 95.4877C19.6886 84.3521 17.7119 73.3462 14.5931 62.6764C14.5931 62.6469 14.5333 62.6554 14.5413 62.6764C15.7454 67.4531 16.8086 72.2494 17.731 77.0653C16.9141 76.2473 15.9161 75.6589 14.8283 75.3542C14.8283 75.3542 14.7964 75.3795 14.8283 75.3879C15.971 75.8305 16.9985 76.5526 17.8267 77.4952C18.0021 78.4435 18.1776 79.3876 18.3411 80.3359C16.9814 78.7301 15.0995 77.9335 13.2135 77.1749C13.2093 77.1769 13.2056 77.1801 13.2031 77.1842C13.2005 77.1883 13.1992 77.1932 13.1992 77.1981C13.1992 77.203 13.2005 77.2078 13.2031 77.2119C13.2056 77.2161 13.2093 77.2193 13.2135 77.2213C15.1792 78.0642 17.1329 79.1516 18.4647 80.9428C18.9272 83.6486 19.3339 86.3643 19.6847 89.0898C18.703 88.0026 17.444 87.2398 16.0604 86.8939C16.0165 86.8939 15.9926 86.9487 16.0365 86.9614C17.4578 87.4038 18.7267 88.2737 19.6887 89.4649H19.7126C19.8323 90.4202 19.9466 91.3798 20.0555 92.3435C19.2961 91.6642 18.4386 91.1178 17.5157 90.7251C17.4918 90.7251 17.4758 90.7546 17.5157 90.763C18.4575 91.1943 19.32 91.7978 20.0635 92.5458C20.0635 92.5458 20.0835 92.5458 20.0954 92.5458C20.1951 93.4604 20.2948 94.375 20.3825 95.2896C19.0133 93.54 17.2365 92.1977 15.2271 91.3952C15.2186 91.3952 15.2105 91.3988 15.2045 91.4051C15.1985 91.4114 15.1952 91.42 15.1952 91.4289C15.1952 91.4379 15.1985 91.4465 15.2045 91.4528C15.2105 91.4591 15.2186 91.4627 15.2271 91.4627C17.2112 92.3871 18.9541 93.8057 20.3067 95.5972C20.3216 95.6169 20.3417 95.6314 20.3644 95.6389C20.3872 95.6464 20.4115 95.6466 20.4343 95.6394C20.5659 97.0429 20.6855 98.4464 20.7812 99.8541C20.7812 99.8751 20.8131 99.8751 20.8131 99.8541C20.7094 98.4407 20.6005 97.0134 20.4862 95.572Z" fill="white"/>
<path d="M15.6018 73.7484C14.5014 73.0244 13.2442 72.6095 11.9496 72.543C11.9432 72.543 11.9371 72.5456 11.9327 72.5504C11.9282 72.5551 11.9256 72.5616 11.9256 72.5683C11.9256 72.575 11.9282 72.5814 11.9327 72.5861C11.9371 72.5909 11.9432 72.5936 11.9496 72.5936C13.2013 72.8445 14.416 73.2696 15.562 73.858C15.6098 73.8706 15.6457 73.7821 15.6018 73.7484Z" fill="white"/>
<path d="M16.3395 91.0159C15.4937 90.5027 14.5624 90.1665 13.5964 90.0254C13.5645 90.0254 13.5605 90.0718 13.5964 90.0802C14.5397 90.2802 15.4522 90.6178 16.3076 91.0833C16.3435 91.1044 16.3754 91.037 16.3395 91.0159Z" fill="white"/>
<path d="M37.5912 79.6321C35.0206 81.5103 32.6598 83.6906 30.5538 86.1311C28.382 88.7151 26.7068 91.7213 25.6217 94.9819C23.3123 101.775 22.0704 108.922 21.9455 116.14C21.8681 120.136 22.2307 124.129 23.026 128.038C23.0325 128.066 23.049 128.091 23.0722 128.107C23.0954 128.122 23.1235 128.128 23.1507 128.123C23.1778 128.117 23.202 128.101 23.2181 128.077C23.2343 128.054 23.2411 128.024 23.2374 127.995C22.2476 121.099 22.2853 114.081 23.349 107.196C24.3936 100.453 26.0324 93.1106 30.0913 87.6273C32.3002 84.6391 35.0554 82.2915 37.7786 79.8639C37.9222 79.729 37.7388 79.5225 37.5912 79.6321Z" fill="#EBEBEB"/>
<path d="M22.8386 111.276C24.3018 108.774 26.0214 106.45 27.9661 104.347C31.0083 101.131 33.5681 98.8468 33.9668 96.7226C34.3655 94.5984 30.9206 93.0305 30.9206 93.0305C30.9206 93.0305 35.1271 93.8313 36.2794 91.9642C37.4317 90.0971 37.9859 79.2822 37.9859 79.2822C37.9859 79.2822 30.3305 85.0606 26.762 93.1612C23.1934 101.262 22.8386 111.276 22.8386 111.276Z" fill="#EBEBEB"/>
<path d="M35.2388 89.427C34.7347 89.3477 34.2237 89.3293 33.7157 89.3722C33.6559 89.3722 33.6599 89.4817 33.7157 89.486C34.2181 89.486 34.7244 89.4607 35.2268 89.486C35.2326 89.4844 35.2378 89.4812 35.2419 89.4767C35.246 89.4721 35.2488 89.4665 35.2501 89.4604C35.2513 89.4542 35.2509 89.4479 35.2489 89.442C35.2469 89.4361 35.2434 89.4309 35.2388 89.427Z" fill="white"/>
<path d="M29.7404 99.9173C28.9321 99.9347 28.1329 100.103 27.38 100.415C27.38 100.415 27.38 100.457 27.38 100.453C28.1775 100.254 28.947 100.174 29.7365 100.031C29.7468 100.026 29.7556 100.019 29.7619 100.009C29.7682 99.9989 29.7718 99.9874 29.7722 99.9755C29.7727 99.9636 29.7699 99.9518 29.7643 99.9416C29.7586 99.9313 29.7504 99.9228 29.7404 99.9173Z" fill="white"/>
<path d="M28.0897 96.2927C27.7541 96.2898 27.419 96.3209 27.0889 96.3854C27.0828 96.3878 27.0776 96.3921 27.0739 96.3977C27.0701 96.4034 27.0681 96.4101 27.0681 96.417C27.0681 96.4239 27.0701 96.4306 27.0739 96.4362C27.0776 96.4419 27.0828 96.4462 27.0889 96.4486C27.4232 96.469 27.7585 96.4535 28.0897 96.4022C28.1035 96.4022 28.1167 96.3965 28.1264 96.3862C28.1361 96.3759 28.1416 96.362 28.1416 96.3474C28.1416 96.3329 28.1361 96.319 28.1264 96.3087C28.1167 96.2984 28.1035 96.2927 28.0897 96.2927Z" fill="white"/>
<path d="M0.394764 91.1044C2.88644 91.9973 5.27411 93.1864 7.5119 94.6489C9.83379 96.2085 11.8473 98.2296 13.4408 100.6C16.7937 105.533 19.3607 111.013 21.0404 116.822C21.9772 120.039 22.5553 123.36 22.7629 126.718C22.7585 126.74 22.7472 126.76 22.7309 126.774C22.7146 126.788 22.6942 126.795 22.6732 126.795C22.6522 126.795 22.6318 126.788 22.6154 126.774C22.5991 126.76 22.5878 126.74 22.5835 126.718C21.8797 120.896 20.3163 115.225 17.9504 109.914C15.6258 104.709 12.6952 99.1713 8.21364 95.7237C5.77348 93.8481 3.0303 92.6175 0.295085 91.3193C0.151546 91.2688 0.251226 91.0538 0.394764 91.1044Z" fill="#EBEBEB"/>
<path d="M19.2541 113.109C17.5219 111.443 15.6219 109.983 13.5883 108.755C10.4225 106.897 7.85077 105.675 7.0653 104.052C6.27982 102.429 8.72397 100.322 8.72397 100.322C8.72397 100.322 5.49434 102.008 4.15465 100.764C2.81495 99.5211 0 90.9232 0 90.9232C0 90.9232 7.46003 93.7259 12.1131 99.4115C16.7661 105.097 19.2541 113.109 19.2541 113.109Z" fill="#EBEBEB"/>
<path d="M13.062 105.194C12.3286 105.14 11.5921 105.236 10.893 105.476C10.893 105.476 10.893 105.514 10.893 105.51C11.6062 105.381 12.3269 105.302 13.0501 105.274C13.1019 105.274 13.1139 105.198 13.062 105.194Z" fill="white"/>
<path d="M6.55494 96.1747C6.22036 96.1458 5.88362 96.1656 5.55416 96.2337C5.51827 96.2337 5.53023 96.3011 5.55416 96.2969C5.88509 96.2589 6.20806 96.2716 6.53501 96.2632C6.54516 96.2636 6.55514 96.2603 6.56324 96.2538C6.57134 96.2473 6.57706 96.238 6.57941 96.2276C6.58177 96.2171 6.58061 96.2061 6.57615 96.1965C6.57168 96.1868 6.56419 96.1791 6.55494 96.1747Z" fill="white"/>
<path d="M28.8752 137.588H12.0373L14.4376 118.997L15.0516 114.23H25.8609L26.4749 118.997L28.8752 137.588Z" fill="#DBDBDB"/>
<path d="M26.4749 118.997H14.4376L15.0516 114.23H25.8609L26.4749 118.997Z" fill="#C7C7C7"/>
<path d="M27.404 112.578H13.5046V116.616H27.404V112.578Z" fill="#DBDBDB"/>
<path d="M1.33173 137.588L31.6383 137.487L61.945 137.449L122.558 137.377L183.171 137.449L213.478 137.487L243.785 137.588L213.478 137.693L183.171 137.727L122.558 137.799L61.945 137.727L31.6383 137.689L1.33173 137.588Z" fill="#263238"/>
<path d="M123.356 169C186.498 169 237.684 163.071 237.684 155.758C237.684 148.444 186.498 142.515 123.356 142.515C60.2136 142.515 9.02696 148.444 9.02696 155.758C9.02696 163.071 60.2136 169 123.356 169Z" fill="#EBEBEB"/>
<path d="M96.7412 153.566C95.8122 153.899 69.1738 153.987 68.153 153.321C67.7543 153.069 67.5271 148.968 67.3556 144.003C67.3197 142.932 67.2918 141.824 67.2679 140.703L65.1427 125.682L82.9535 125.559L84.6321 140.585L84.5643 143.889C84.5643 143.889 94.7795 148.673 95.8241 149.541C96.8688 150.409 97.6702 153.233 96.7412 153.566Z" fill="#EB9481"/>
<path d="M96.7412 153.566C95.8122 153.899 69.1738 153.987 68.153 153.321C67.6825 153.01 67.4274 147.02 67.2838 140.703L84.6121 140.585L84.5444 143.889C84.5444 143.889 94.7595 148.673 95.8042 149.541C96.8488 150.409 97.6702 153.233 96.7412 153.566Z" fill="white"/>
<path d="M96.7412 153.566C95.8121 153.899 69.1737 153.987 68.153 153.321C67.7543 153.069 67.527 148.968 67.3556 144.003L84.5284 143.889C84.5284 143.889 94.7436 148.673 95.7882 149.541C96.8329 150.409 97.6702 153.233 96.7412 153.566Z" fill="#A6A6A6"/>
<path d="M96.3544 152.441C91.8887 152.339 73.8666 152.386 69.4448 152.647C69.4089 152.647 69.4089 152.672 69.4448 152.677C73.8706 152.875 91.8927 152.677 96.3544 152.516C96.4501 152.512 96.4501 152.441 96.3544 152.441Z" fill="#263238"/>
<path d="M94.0856 148.534C93.5891 148.522 93.0956 148.619 92.6364 148.819C92.1773 149.02 91.7625 149.318 91.4182 149.697C90.7908 150.372 90.4363 151.279 90.4294 152.226C90.4294 152.255 90.4772 152.255 90.4812 152.226C90.6295 151.293 91.0591 150.436 91.7058 149.783C92.3525 149.13 93.1817 148.715 94.0697 148.601C94.0782 148.603 94.0871 148.602 94.0946 148.597C94.1021 148.592 94.1075 148.585 94.1096 148.576C94.1117 148.567 94.1104 148.557 94.1059 148.549C94.1014 148.541 94.0941 148.536 94.0856 148.534Z" fill="#263238"/>
<path d="M86.2748 144.353C84.4886 144.332 82.4192 145.006 81.3108 146.557C81.2709 146.616 81.3506 146.679 81.4025 146.65C82.9631 145.779 84.6072 145.087 86.3067 144.584C86.333 144.577 86.3557 144.559 86.3707 144.535C86.3856 144.511 86.3917 144.482 86.3877 144.454C86.3838 144.425 86.3702 144.399 86.3494 144.38C86.3286 144.362 86.3021 144.352 86.2748 144.353Z" fill="#263238"/>
<path d="M87.6624 144.913C85.8721 144.913 83.8028 145.571 82.6983 147.117C82.6544 147.181 82.7342 147.244 82.79 147.214C84.3484 146.341 85.9913 145.647 87.6903 145.145C87.7162 145.137 87.7387 145.12 87.7536 145.097C87.7685 145.073 87.7749 145.044 87.7715 145.016C87.7681 144.988 87.7552 144.962 87.7351 144.943C87.7151 144.924 87.6892 144.914 87.6624 144.913Z" fill="#263238"/>
<path d="M89.0419 145.478C87.2556 145.478 85.1863 146.131 84.0778 147.682C84.0379 147.741 84.1177 147.804 84.1695 147.775C85.7302 146.904 87.3742 146.212 89.0738 145.71C89.1 145.702 89.1228 145.685 89.1377 145.661C89.1526 145.636 89.1587 145.607 89.1548 145.579C89.1509 145.55 89.1372 145.524 89.1164 145.506C89.0956 145.487 89.0691 145.477 89.0419 145.478Z" fill="#263238"/>
<path d="M90.4255 146.043C88.6352 146.022 86.5658 146.696 85.4614 148.247C85.4175 148.306 85.5013 148.369 85.5531 148.34C87.1134 147.468 88.7575 146.776 90.4573 146.274C90.4836 146.267 90.5064 146.249 90.5213 146.225C90.5362 146.201 90.5423 146.172 90.5384 146.144C90.5344 146.115 90.5208 146.089 90.5 146.071C90.4792 146.052 90.4527 146.042 90.4255 146.043Z" fill="#263238"/>
<path d="M70.5692 148.158C68.5757 148.158 68.5757 151.467 70.5692 151.454C72.5628 151.442 72.5788 148.146 70.5692 148.158Z" fill="#263238"/>
<path d="M88.1926 139.303C87.2875 138.511 86.1472 139.303 85.593 140.117C84.6704 141.555 84.1205 143.223 83.9981 144.955C83.9981 144.993 84.026 145.01 84.0539 145.01C84.061 145.046 84.0761 145.079 84.0979 145.107C84.1197 145.136 84.1476 145.158 84.1792 145.172C84.2109 145.187 84.2454 145.193 84.2797 145.19C84.3141 145.188 84.3474 145.177 84.3769 145.158C85.6448 144.226 87.1121 143.392 88.073 142.072C88.6192 141.305 89.0658 140.041 88.1926 139.303ZM86.0156 143.324C85.4016 143.8 84.7676 144.243 84.1695 144.745C84.4885 143.8 84.7636 142.848 85.1703 141.938C85.3582 141.501 85.574 141.079 85.8162 140.673C86.215 140.045 87.9534 138.46 88.1368 140.513C88.2405 141.638 86.7453 142.759 86.0156 143.324Z" fill="#263238"/>
<path d="M79.5484 145.672C81.1034 145.916 82.7102 145.444 84.2373 145.187C84.2705 145.178 84.3011 145.161 84.3269 145.137C84.3526 145.113 84.3727 145.083 84.3854 145.049C84.3982 145.016 84.4034 144.979 84.4005 144.943C84.3976 144.907 84.3868 144.872 84.3689 144.842C84.3747 144.837 84.3794 144.831 84.3826 144.824C84.3858 144.817 84.3875 144.809 84.3875 144.801C84.3875 144.794 84.3858 144.786 84.3826 144.779C84.3794 144.772 84.3747 144.766 84.3689 144.761C83.1419 143.605 81.6485 142.81 80.0388 142.456C79.0978 142.266 77.7661 142.54 77.6465 143.775C77.5029 144.938 78.6393 145.52 79.5484 145.672ZM78.4639 144.601C77.2677 142.983 79.5524 142.844 80.2382 143.012C80.6831 143.13 81.12 143.279 81.546 143.459C82.418 143.841 83.2711 144.27 84.1017 144.745C83.3442 144.825 82.5986 144.968 81.845 145.078C80.9439 145.204 79.1337 145.491 78.4639 144.601Z" fill="#263238"/>
<path d="M38.9549 56.2533C38.9549 56.2533 59.6364 93.4436 60.1906 96.0567C61.0399 100.069 65.5414 139.691 65.5414 139.691L87.0722 139.27C87.0722 139.27 83.3642 104.334 79.8515 92.824C77.3236 84.5337 59.0702 57.0372 59.0702 57.0372L38.9549 56.2533Z" fill="#37474F"/>
<path d="M85.1145 135.797C82.0244 135.772 71.0716 135.641 66.9569 136.045C66.925 136.045 66.9289 136.104 66.9569 136.109C68.3723 136.324 82.0204 135.991 85.1105 135.885C85.117 135.888 85.1239 135.889 85.1307 135.888C85.1375 135.887 85.144 135.884 85.1498 135.88C85.1555 135.876 85.1602 135.871 85.1636 135.865C85.167 135.858 85.1689 135.851 85.1692 135.844C85.1696 135.837 85.1683 135.829 85.1655 135.823C85.1627 135.816 85.1584 135.81 85.1531 135.806C85.1478 135.801 85.1415 135.798 85.1348 135.796C85.1281 135.795 85.1212 135.795 85.1145 135.797Z" fill="#263238"/>
<path d="M42.4835 59.6671C43.8391 61.9136 45.2745 64.1136 46.6541 66.3432C48.0336 68.5728 49.4212 70.8023 50.7888 73.0277C53.516 77.5233 56.1741 82.0485 58.7631 86.6031C60.0267 88.7144 61.1076 90.9417 61.9928 93.2581C62.8008 95.575 63.408 97.9647 63.8069 100.398C64.2296 102.838 64.5087 105.304 64.7678 107.769C65.0337 110.391 65.3114 113.014 65.6012 115.638C66.1673 121.008 66.7349 126.377 67.3037 131.746C67.3715 132.404 67.4393 133.061 67.5031 133.723C67.5031 133.82 67.3476 133.837 67.3356 133.723C66.7016 128.392 66.1753 123.039 65.6012 117.707C65.3141 115.047 65.0283 112.387 64.7439 109.729C64.4768 107.255 64.2216 104.777 63.8588 102.32C63.5258 99.8943 63.0193 97.4991 62.3436 95.1547C61.5991 92.7272 60.6015 90.3948 59.3692 88.2005C56.8772 83.6529 54.2377 79.1853 51.5982 74.7135C48.9586 70.2418 46.2474 65.7321 43.4643 61.3151C43.1214 60.7714 42.7745 60.2277 42.4157 59.6924C42.3878 59.6629 42.4595 59.625 42.4835 59.6671Z" fill="#263238"/>
<path d="M45.7331 155.757C44.7522 155.694 19.4176 144.846 18.7159 143.817C18.6846 143.757 18.6708 143.688 18.676 143.619C18.676 142.696 20.4343 139.476 21.9016 135.245C21.9933 134.975 22.6472 133.719 23.5523 132.029C26.0682 127.397 30.4542 119.419 30.4542 119.419L47.0129 126.373L39.0864 138.911L37.8544 141.946C37.8544 141.946 45.6254 150.439 46.2793 151.64C46.9332 152.841 46.7099 155.817 45.7331 155.757Z" fill="#EB9481"/>
<path d="M45.7331 155.758C44.7522 155.694 19.4176 144.846 18.7159 143.817C18.6846 143.757 18.6708 143.688 18.676 143.619C18.676 142.696 20.4343 139.476 21.9016 135.245C21.9933 134.975 22.6472 133.719 23.5523 132.029L39.1024 138.911L37.8703 141.946C37.8703 141.946 45.6413 150.439 46.2952 151.64C46.9491 152.841 46.7099 155.817 45.7331 155.758Z" fill="white"/>
<path d="M45.7331 155.758C44.7522 155.694 19.4176 144.846 18.7159 143.817C18.4447 143.425 19.5771 139.771 21.9056 135.245L37.8544 141.95C37.8544 141.95 45.6254 150.434 46.2833 151.644C46.9412 152.854 46.7099 155.817 45.7331 155.758Z" fill="#A6A6A6"/>
<path d="M45.7729 154.561C41.6701 152.698 24.9478 145.592 20.7573 144.083C20.7214 144.083 20.7135 144.083 20.7573 144.108C24.7884 146.047 41.5625 153.01 45.757 154.645C45.8367 154.666 45.8607 154.598 45.7729 154.561Z" fill="#263238"/>
<path d="M45.0553 150.038C44.6003 149.827 44.1088 149.718 43.6119 149.718C43.115 149.718 42.6235 149.827 42.1685 150.038C41.3505 150.417 40.7022 151.114 40.3584 151.985C40.3584 152.011 40.3942 152.032 40.4062 152.006C40.8762 151.198 41.5814 150.573 42.416 150.224C43.2506 149.875 44.1696 149.822 45.0353 150.072C45.042 150.07 45.0478 150.065 45.0515 150.059C45.0552 150.053 45.0565 150.045 45.0553 150.038Z" fill="#263238"/>
<path d="M39.3017 143.067C37.655 142.338 35.494 142.144 33.919 143.143C33.8592 143.181 33.919 143.269 33.9709 143.265C35.7265 143.077 37.4962 143.087 39.2499 143.295C39.2769 143.298 39.304 143.29 39.3262 143.274C39.3484 143.257 39.3642 143.233 39.3705 143.205C39.3769 143.177 39.3734 143.148 39.3607 143.122C39.3481 143.097 39.3271 143.077 39.3017 143.067Z" fill="#263238"/>
<path d="M40.3822 144.138C38.7355 143.409 36.5744 143.215 34.9995 144.214C34.9397 144.251 34.9995 144.34 35.0513 144.336C36.8069 144.145 38.5768 144.155 40.3304 144.365C40.3574 144.368 40.3845 144.361 40.4067 144.344C40.4289 144.328 40.4446 144.303 40.451 144.276C40.4574 144.248 40.4539 144.218 40.4412 144.193C40.4286 144.168 40.4076 144.148 40.3822 144.138Z" fill="#263238"/>
<path d="M41.4668 145.208C39.8161 144.479 37.655 144.285 36.0841 145.284C36.0203 145.322 36.0841 145.41 36.1319 145.406C37.8875 145.216 39.6574 145.226 41.411 145.436C41.4385 145.441 41.4668 145.434 41.4902 145.418C41.5136 145.402 41.5305 145.378 41.5375 145.349C41.5445 145.32 41.5411 145.29 41.528 145.264C41.515 145.238 41.4931 145.218 41.4668 145.208Z" fill="#263238"/>
<path d="M42.5473 146.279C40.8966 145.55 38.7395 145.356 37.1646 146.35C37.1008 146.393 37.1646 146.481 37.2124 146.477C38.968 146.286 40.7379 146.296 42.4915 146.506C42.519 146.511 42.5473 146.505 42.5707 146.489C42.5941 146.473 42.611 146.448 42.618 146.42C42.625 146.391 42.6216 146.361 42.6085 146.335C42.5954 146.309 42.5736 146.289 42.5473 146.279Z" fill="#263238"/>
<path d="M23.3889 140.366C21.5268 139.582 20.3706 142.646 22.2406 143.43C24.1105 144.214 25.2708 141.149 23.3889 140.366Z" fill="#263238"/>
<path d="M42.8703 139.147C42.3081 138.056 40.9804 138.326 40.171 138.869C38.8075 139.835 37.7076 141.162 36.9812 142.717C36.978 142.724 36.9763 142.732 36.9762 142.739C36.9762 142.747 36.9777 142.754 36.9808 142.761C36.9839 142.768 36.9884 142.774 36.994 142.779C36.9995 142.784 37.0061 142.787 37.0131 142.789C37.0131 142.928 37.1008 143.092 37.2563 143.059C38.7675 142.692 40.4221 142.502 41.7778 141.659C42.5553 141.171 43.4006 140.18 42.8703 139.147ZM39.4214 142.009C38.6837 142.207 37.9421 142.368 37.2125 142.595C37.816 141.826 38.4561 141.091 39.1303 140.391C39.4622 140.057 39.8152 139.747 40.1869 139.464C40.765 139.042 42.95 138.262 42.3918 140.239C42.0848 141.331 40.3025 141.773 39.4214 142.009Z" fill="#263238"/>
<path d="M32.5953 141.621C33.9509 142.464 35.6056 142.663 37.1127 143.033C37.2682 143.071 37.3719 142.907 37.36 142.764C37.3674 142.763 37.3746 142.76 37.3807 142.755C37.3868 142.751 37.3917 142.744 37.3949 142.737C37.3981 142.73 37.3995 142.722 37.399 142.714C37.3985 142.706 37.396 142.699 37.3918 142.692C36.6666 141.133 35.5666 139.803 34.2021 138.836C33.4047 138.288 32.069 138.014 31.5028 139.101C30.9366 140.188 31.8018 141.128 32.5953 141.621ZM31.9733 140.197C31.419 138.22 33.6 139.004 34.1782 139.43C34.5494 139.714 34.9012 140.025 35.2308 140.361C35.9037 141.063 36.5425 141.8 37.1446 142.57C36.415 142.342 35.6734 142.178 34.9357 141.98C34.0426 141.727 32.2763 141.305 31.9733 140.197Z" fill="#263238"/>
<path d="M40.3743 138.212L21.8378 130.301C21.8378 130.301 44.82 94.5815 44.9875 91.922C45.139 89.5703 35.0434 69.0785 34.6487 63.1063C34.2181 56.6579 37.1526 51.6719 40.3823 48.5741L59.5008 57.1678C59.5008 57.1678 57.4833 60.5775 54.3175 62.4783C54.3175 62.4783 64.122 86.1648 63.5638 93.4478C63.0056 100.731 40.3743 138.212 40.3743 138.212Z" fill="#37474F"/>
<path d="M41.1957 134.486C38.5163 133.268 39.3018 133.576 36.6064 132.379C35.2906 131.797 26.6384 127.991 25.3067 127.675C25.2788 127.675 25.2589 127.717 25.2868 127.734C26.4391 128.48 35.1631 132.126 36.4908 132.682C39.2061 133.812 38.4365 133.458 41.1638 134.553C41.1679 134.559 41.1733 134.564 41.1795 134.567C41.1857 134.57 41.1925 134.571 41.1993 134.57C41.206 134.57 41.2125 134.567 41.2181 134.563C41.2238 134.559 41.2283 134.553 41.2313 134.547C41.2344 134.541 41.2358 134.533 41.2355 134.526C41.2352 134.519 41.2332 134.512 41.2296 134.506C41.226 134.5 41.221 134.495 41.2151 134.491C41.2092 134.488 41.2025 134.486 41.1957 134.486Z" fill="#263238"/>
<path d="M57.4514 62.0442C55.4609 62.5347 53.5135 63.203 51.6301 64.042C51.6225 64.0447 51.6155 64.0491 51.6095 64.0547C51.6035 64.0603 51.5986 64.0671 51.5951 64.0748C51.5915 64.0824 51.5895 64.0907 51.589 64.0992C51.5885 64.1076 51.5896 64.1161 51.5922 64.1242C51.5948 64.1322 51.5989 64.1396 51.6042 64.1459C51.6096 64.1523 51.616 64.1575 51.6232 64.1612C51.6305 64.1649 51.6383 64.1671 51.6463 64.1676C51.6543 64.1681 51.6624 64.167 51.67 64.1642C53.6237 63.5615 55.6093 62.9967 57.5311 62.2845C57.6787 62.2297 57.6029 62.0105 57.4514 62.0442Z" fill="#263238"/>
<path d="M55.1747 61.2266C54.9889 61.5759 54.8251 61.9377 54.6843 62.3097C54.5467 62.5921 54.4614 62.8997 54.4331 63.2159C54.4331 63.2791 54.5128 63.2918 54.5487 63.2538C54.7488 63.0009 54.9102 62.7165 55.0272 62.4109C55.1907 62.0779 55.3581 61.7492 55.5136 61.4078C55.6213 61.1591 55.2983 60.999 55.1747 61.2266Z" fill="#263238"/>
<path d="M55.4139 59.3131C55.5336 59.0012 55.6492 58.6936 55.7728 58.3817C55.8964 58.0698 56.0519 57.7495 56.1715 57.4207C56.1715 57.3701 56.2672 57.4207 56.2473 57.4587C56.1276 57.7705 56.0519 58.0993 55.9602 58.4196C55.8685 58.7399 55.7648 59.0602 55.6651 59.3805C55.4777 59.9748 55.2664 60.5649 55.0072 61.1423C55.321 61.1588 55.6343 61.1012 55.9243 60.9737C56.2205 60.7733 56.4483 60.4779 56.5742 60.1308C56.7417 59.7852 56.8972 59.4311 57.0686 59.0855C57.2797 58.7119 57.4572 58.3182 57.5989 57.9096C57.5989 57.8591 57.6946 57.9096 57.6747 57.9476C57.4147 58.8114 57.0741 59.6458 56.6579 60.4384C56.4785 60.7461 56.339 61.0706 56.012 61.1886C55.6581 61.2933 55.2877 61.3205 54.9235 61.2687C54.8757 61.2687 54.8198 61.2687 54.8358 61.1929C54.999 60.5566 55.192 59.9292 55.4139 59.3131Z" fill="#263238"/>
<path d="M54.6006 63.2496C55.2824 64.7711 55.8804 66.2884 56.5144 67.8057C57.1484 69.323 57.7106 70.7897 58.2807 72.2985C59.4211 75.3415 60.4418 78.4435 61.3389 81.5708C61.7815 83.1218 62.1922 84.6855 62.559 86.2617C62.963 87.833 63.2588 89.4332 63.4441 91.0496C63.6041 92.6634 63.4688 94.2946 63.0454 95.8543C62.6057 97.3961 62.0414 98.895 61.3588 100.335C60.9402 101.245 60.8006 101.123 61 100.663C61.5702 99.3567 63.0654 95.3992 62.9577 92.0738C62.8705 90.4818 62.6381 88.9024 62.2639 87.3576C61.9157 85.7644 61.5236 84.1839 61.0877 82.6161C60.2384 79.5225 59.2297 76.4921 58.193 73.466C57.6109 71.7801 56.9969 70.0943 56.3988 68.4084C55.8007 66.7225 55.2026 65.1715 54.5328 63.3086C54.5128 63.2328 54.5806 63.2033 54.6006 63.2496Z" fill="#263238"/>
<path d="M40.5298 58.2215C40.8607 58.0909 41.3272 58.3058 41.6621 58.3648C42.0959 58.4426 42.5342 58.4891 42.9739 58.5039C43.409 58.5201 43.8447 58.5046 44.2777 58.4575C44.7139 58.4456 45.1413 58.3258 45.5257 58.1077C46.1564 57.6221 46.6971 57.0177 47.1206 56.3249C47.6253 55.617 48.042 54.8436 48.3606 54.0237C48.3606 53.9731 48.4444 54.0237 48.4284 54.0574C48.2889 54.5252 48.1852 54.9973 48.0297 55.4567C47.8578 55.8883 47.6524 56.3042 47.4157 56.7C47.0318 57.4966 46.464 58.1779 45.765 58.6809C44.9954 59.1445 44.0066 59.1024 43.1494 59.0644C42.6522 59.0338 42.1578 58.9648 41.6701 58.8579C41.3192 58.7779 40.7291 58.7188 40.5059 58.3943C40.4954 58.3819 40.4876 58.3672 40.483 58.3512C40.4785 58.3353 40.4773 58.3185 40.4796 58.302C40.4819 58.2855 40.4876 58.2698 40.4962 58.2559C40.5049 58.242 40.5164 58.2302 40.5298 58.2215Z" fill="#263238"/>
<path d="M27.1288 126.554C30.1751 121.676 33.1654 116.759 36.1 111.803C39.0346 106.846 41.9293 101.852 44.7841 96.8195C45.4659 95.6183 46.2514 94.4214 46.69 93.0895C47.1685 91.6439 46.8973 90.2404 46.4667 88.8243C45.6536 86.2408 44.7031 83.708 43.6199 81.2379C42.5513 78.747 41.399 76.2983 40.2666 73.8411C39.1343 71.3839 37.9501 68.9563 37.0769 66.3938C36.2794 63.945 35.9565 61.4078 36.5785 58.8706C37.2005 56.3333 38.5402 54.0911 39.9397 51.9796C40.3065 51.4232 40.6853 50.8711 41.0561 50.2937C41.084 50.2516 41.1438 50.2937 41.1159 50.3443C39.5729 52.5443 38.0697 54.8751 37.1646 57.4587C36.702 58.7321 36.4433 60.0782 36.3991 61.4415C36.3915 62.8254 36.5948 64.2015 37.0011 65.5171C37.7507 68.0796 38.9349 70.5031 40.0394 72.9139C41.1438 75.3247 42.324 77.8197 43.4125 80.3022C44.5355 82.8007 45.5336 85.3597 46.4029 87.9687C46.7737 89.1277 47.2003 90.3415 47.1685 91.5849C47.1405 92.9462 46.5265 94.1727 45.8886 95.3191C43.0975 100.313 40.2387 105.249 37.3281 110.155C34.4174 115.061 31.423 119.967 28.3928 124.822L27.2445 126.655C27.1847 126.731 27.081 126.643 27.1288 126.554Z" fill="#263238"/>
<path d="M60.5614 34.4508C62.2879 38.4547 71.0079 43.9717 75.0907 44.566C78.0253 44.9874 86.9486 45.1392 90.0068 44.6461C93.5953 44.0644 90.8521 33.8438 88.7349 34.1094C82.9136 34.8259 77.9695 35.6266 76.4145 35.6266C74.5166 35.6266 64.2496 32.1453 63.0135 31.6522C59.9833 30.4595 59.5846 32.179 60.5614 34.4508Z" fill="#EB9481"/>
<path d="M60.6172 35.5171C62.8022 38.9352 70.0629 44.5238 70.0629 44.5238L71.0716 42.1636L74.4089 34.358C74.4089 34.358 67.7383 32.1453 63.3484 31.1338C62.8318 31.0095 62.3064 30.9306 61.7775 30.8978C58.9745 30.7376 58.7313 32.5668 60.6172 35.5171Z" fill="white"/>
<path d="M60.6172 35.5171C62.8022 38.9352 70.0629 44.5238 70.0629 44.5238L71.0716 42.1636C68.3643 38.8382 64.1818 33.8017 61.7775 30.9062C58.9745 30.7376 58.7313 32.5668 60.6172 35.5171Z" fill="#263238"/>
<path d="M68.7551 42.9391C69.3093 41.5019 71.7734 35.7152 72.3874 34.5098C72.4273 34.4255 72.4911 34.4339 72.4552 34.5098C71.3863 37.3875 70.1698 40.2015 68.8109 42.9391C68.7949 42.9897 68.7312 42.9728 68.7551 42.9391Z" fill="#263238"/>
<path d="M87.6663 34.2147C91.2069 33.7258 95.5889 32.8871 99.3009 34.5519C99.7179 34.7248 100.068 35.041 100.294 35.4496C101.968 36.1661 102.152 37.2156 102.152 37.2156C103.519 38.3872 103.567 39.4915 103.567 39.4915C103.567 39.4915 105.529 40.3344 105.23 41.6916C104.903 43.192 102.216 41.6916 100.262 41.8138C95.7763 42.1088 89.4964 43.8495 88.2006 44.0686L87.6663 34.2147Z" fill="#EB9481"/>
<path d="M95.3576 38.6317C96.6692 38.5369 97.9854 38.5369 99.2969 38.6317C100.725 38.8211 102.138 39.124 103.523 39.5379C103.532 39.5412 103.542 39.5407 103.551 39.5363C103.559 39.532 103.566 39.5242 103.569 39.5147C103.572 39.5052 103.572 39.4947 103.568 39.4856C103.564 39.4766 103.556 39.4696 103.547 39.4662C100.945 38.3869 98.1119 38.0837 95.3576 38.5896C95.2938 38.5811 95.2938 38.6359 95.3576 38.6317Z" fill="#263238"/>
<path d="M94.5243 34.2527C96.7132 34.3707 98.0808 34.7416 100.282 35.4412V35.4159C97.8575 34.3454 96.8647 34.2442 94.5123 34.1515C94.4365 34.1852 94.4405 34.2527 94.5243 34.2527Z" fill="#263238"/>
<path d="M94.8792 42.5303C94.309 42.8127 94.4485 43.1288 95.5371 43.3943C96.6256 43.6598 101.151 43.7399 100.992 45.4089C100.832 47.0779 94.4485 46.8672 92.6663 46.2771C90.884 45.6871 88.2006 44.0686 88.2006 44.0686C89.4646 43.8453 92.431 42.9981 94.8792 42.5303Z" fill="#EB9481"/>
<path d="M65.3022 40.8318C65.2743 41.5525 65.2105 42.2858 65.1148 43.015C65.1148 42.9855 65.1148 42.9602 65.1427 42.9349C65.2743 42.5556 65.4059 42.1678 65.5653 41.8011C65.5653 41.8011 65.6052 41.8011 65.6012 41.8011C65.5246 42.2029 65.4097 42.5955 65.2583 42.9728C65.1866 43.154 65.1188 43.3311 65.043 43.5081C64.9952 43.8326 64.9394 44.1529 64.8795 44.4732C64.7599 45.0759 64.2217 47.6385 64.0821 48.0726C64.0582 48.1611 63.9545 48.14 63.9625 48.0389C63.9904 47.5668 64.441 44.8989 64.5327 44.292C64.7108 43.1202 64.949 41.9594 65.2464 40.8149C65.2663 40.7938 65.3062 40.8107 65.3022 40.8318Z" fill="#263238"/>
<path d="M61.1555 59.9959C60.0909 60.5733 58.7193 61.471 52.5392 60.1856C52.1404 60.1013 51.7657 60.0001 51.3749 59.8779C45.5815 58.0403 38.6159 50.8374 38.2371 50.3274C38.2371 50.3274 47.4435 34.5519 59.2177 29.5912C60.673 28.9801 63.0813 30.1602 64.4011 31.6311C64.8755 32.158 65.9082 36.0313 65.5135 39.167C65.1187 42.3027 62.2161 59.4185 61.1555 59.9959Z" fill="white"/>
<path d="M60.3262 39.0237C60.3706 39.6903 60.2824 40.3594 60.067 40.9877C60.0165 40.3209 60.1049 39.6504 60.3262 39.0237Z" fill="white"/>
<path d="M56.3111 49.7669C56.3364 50.0986 56.3257 50.4324 56.2792 50.7615C56.2408 51.0932 56.1645 51.4187 56.0519 51.7309C56.0244 51.3978 56.0351 51.0624 56.0838 50.732C56.1246 50.4022 56.2008 50.0784 56.3111 49.7669Z" fill="white"/>
<path d="M49.489 41.6452C49.5339 42.3132 49.4456 42.9838 49.2298 43.6134C49.1797 42.9452 49.2682 42.2735 49.489 41.6452Z" fill="white"/>
<path d="M62.9537 49.219C62.9791 49.5521 62.9684 49.8873 62.9218 50.2178C62.8834 50.5495 62.8071 50.875 62.6945 51.1872C62.6671 50.8541 62.6778 50.5187 62.7264 50.1883C62.7667 49.8571 62.843 49.5318 62.9537 49.219Z" fill="white"/>
<path d="M54.1939 40.2544C54.5076 40.2261 54.8233 40.236 55.1349 40.2839C55.4488 40.3259 55.7567 40.408 56.0519 40.5283C55.4212 40.5762 54.7881 40.4828 54.1939 40.2544Z" fill="white"/>
<path d="M46.4507 48.0136C47.0814 47.9666 47.7144 48.0599 48.3088 48.2875C47.6779 48.341 47.0437 48.2475 46.4507 48.0136Z" fill="white"/>
<path d="M55.5735 56.4134C56.2041 56.3655 56.8373 56.4589 57.4315 56.6874C56.8007 56.74 56.1666 56.6465 55.5735 56.4134Z" fill="white"/>
<path d="M44.0624 53.362C44.6931 53.315 45.3261 53.4083 45.9205 53.6359C45.2896 53.6886 44.6556 53.5951 44.0624 53.362Z" fill="white"/>
<path d="M60.2663 31.471C60.897 31.424 61.5299 31.5173 62.1244 31.7449C61.4937 31.7919 60.8607 31.6986 60.2663 31.471Z" fill="white"/>
<path d="M58.0136 34.1599C57.812 34.4161 57.5818 34.6453 57.3278 34.8427C57.0808 35.0447 56.8133 35.2171 56.5304 35.3569C56.7306 35.1024 56.9581 34.8733 57.2082 34.6741C57.4576 34.4714 57.7278 34.2989 58.0136 34.1599Z" fill="white"/>
<path d="M45.7371 41.8011C45.533 42.0551 45.3015 42.2828 45.0473 42.4797C44.8027 42.6855 44.5348 42.8582 44.2498 42.9939C44.455 42.7411 44.6863 42.5134 44.9396 42.3153C45.1848 42.1104 45.4525 41.9378 45.7371 41.8011Z" fill="white"/>
<path d="M61.0678 45.2487C60.8638 45.504 60.6323 45.7331 60.378 45.9315C60.1329 46.1364 59.8651 46.3091 59.5806 46.4457C59.7845 46.1905 60.016 45.9613 60.2704 45.7629C60.5169 45.5601 60.7844 45.3876 61.0678 45.2487Z" fill="white"/>
<path d="M51.1397 51.8573C50.9357 52.1126 50.7042 52.3417 50.4499 52.5401C50.2044 52.7444 49.9366 52.917 49.6525 53.0543C49.8564 52.7991 50.0879 52.5699 50.3422 52.3715C50.5887 52.1687 50.8563 51.9962 51.1397 51.8573Z" fill="white"/>
<path d="M64.8716 36.2209C64.6676 36.4761 64.4361 36.7053 64.1818 36.9037C63.9347 37.1057 63.6673 37.2781 63.3843 37.4179C63.5883 37.1627 63.8198 36.9335 64.0741 36.7351C64.3197 36.5308 64.5874 36.3582 64.8716 36.2209Z" fill="white"/>
<path d="M64.6642 43.879C64.4228 43.6634 64.206 43.4187 64.0183 43.1498C63.8243 42.8909 63.6609 42.6078 63.5319 42.3069C63.7742 42.52 63.9911 42.7634 64.1778 43.0318C64.3683 43.2949 64.5314 43.5789 64.6642 43.879Z" fill="white"/>
<path d="M42.5353 49.1557C42.2939 48.9401 42.0771 48.6954 41.8894 48.4266C41.6975 48.166 41.5343 47.8832 41.403 47.5837C41.6444 47.7993 41.8612 48.044 42.0489 48.3128C42.2421 48.5723 42.4054 48.8553 42.5353 49.1557Z" fill="white"/>
<path d="M61.9728 55.4314C61.7305 55.2183 61.5136 54.9749 61.3269 54.7065C61.1358 54.4453 60.9727 54.1626 60.8405 53.8635C61.0819 54.0791 61.2987 54.3238 61.4864 54.5927C61.6788 54.8513 61.8421 55.1328 61.9728 55.4314Z" fill="white"/>
<path d="M52.2322 37.5401C51.9908 37.326 51.774 37.0827 51.5863 36.8152C51.396 36.5534 51.2329 36.2708 51.0998 35.9723C51.3421 36.1853 51.559 36.4287 51.7457 36.6972C51.936 36.9589 52.0991 37.2415 52.2322 37.5401Z" fill="white"/>
<path d="M52.4036 59.0054C52.1622 58.7898 51.9454 58.5451 51.7577 58.2763C51.5664 58.0153 51.4033 57.7326 51.2713 57.4334C51.5136 57.6464 51.7305 57.8899 51.9172 58.1583C52.1091 58.4204 52.2723 58.7046 52.4036 59.0054Z" fill="white"/>
<path d="M54.0583 46.3446C53.8191 46.1277 53.6037 45.8832 53.4163 45.6154C53.2217 45.3569 53.0583 45.0738 52.9299 44.7725C53.1701 44.9882 53.3855 45.2329 53.5718 45.5016C53.7657 45.7608 53.929 46.0438 54.0583 46.3446Z" fill="white"/>
<path d="M62.244 35.8332C60.7408 35.5381 59.3294 32.2549 59.15 30.0464C59.15 29.8947 59.8517 28.6935 60.6531 27.1889C61.1396 26.2743 61.6539 25.2417 62.0646 24.2639C62.1483 24.0658 62.6387 24.7359 62.6387 24.7359L63.7073 25.5789L67.236 28.4406C66.3957 29.5065 65.682 30.677 65.1108 31.9262C65.0544 32.0615 65.0116 32.2028 64.9832 32.3476C64.9816 32.3715 64.9816 32.3954 64.9832 32.4193C64.7639 33.2538 63.6914 36.1155 62.244 35.8332Z" fill="#EB9481"/>
<path d="M64.9832 32.3687C64.9816 32.3926 64.9816 32.4165 64.9832 32.4403C64.7737 32.3754 64.5697 32.2922 64.3732 32.1917C60.5096 30.2782 62.2121 24.8076 62.2121 24.8076L63.7272 25.5999L67.2559 28.4617C66.4156 29.5275 65.7019 30.6981 65.1307 31.9472C65.0675 32.0818 65.018 32.2231 64.9832 32.3687Z" fill="#263238"/>
<path d="M71.291 16.7955C71.291 16.7955 73.0573 17.9798 73.0652 20.0871C73.0732 22.1945 72.2678 24.2555 72.1003 24.3313C71.9329 24.4072 71.291 16.7955 71.291 16.7955Z" fill="#263238"/>
<path d="M62.5271 17.8913C61.4665 20.104 61.5223 27.0793 62.846 28.8747C64.7679 31.4794 68.468 32.3771 70.7048 29.802C72.8698 27.3069 72.6465 18.22 71.1035 16.5257C68.8587 14.0222 64.098 14.6165 62.5271 17.8913Z" fill="#EB9481"/>
<path d="M68.157 23.4757C68.157 23.4757 68.1211 23.501 68.1251 23.5179C68.149 23.9942 68.1012 24.5421 67.6984 24.7106C67.6984 24.7106 67.6984 24.7401 67.6984 24.7359C68.1968 24.6516 68.2527 23.9225 68.157 23.4757Z" fill="#263238"/>
<path d="M67.7463 22.991C67.0207 22.9489 66.9967 24.483 67.6706 24.521C68.3444 24.5589 68.3524 23.0248 67.7463 22.991Z" fill="#263238"/>
<path d="M70.6171 23.4589C70.6171 23.4589 70.653 23.4589 70.653 23.501C70.6291 23.9773 70.6809 24.5252 71.0876 24.6896C71.0876 24.6896 71.0876 24.7191 71.0876 24.7149C70.5852 24.6348 70.5254 23.9056 70.6171 23.4589Z" fill="#263238"/>
<path d="M71.0278 22.97C71.7495 22.9236 71.7853 24.4578 71.1155 24.4999C70.4456 24.5421 70.4217 23.0079 71.0278 22.97Z" fill="#263238"/>
<path d="M67.2918 21.8236C67.4823 21.7663 67.67 21.6988 67.854 21.6213C68.0634 21.5812 68.2542 21.4685 68.3962 21.301C68.4307 21.2396 68.4451 21.168 68.4372 21.0971C68.4292 21.0263 68.3994 20.9602 68.3524 20.909C68.2445 20.8223 68.1166 20.7676 67.9821 20.7506C67.8475 20.7335 67.7111 20.7548 67.5868 20.8121C67.3178 20.8882 67.0849 21.0668 66.9329 21.3136C66.9026 21.3723 66.8888 21.439 66.8932 21.5057C66.8976 21.5724 66.9201 21.6364 66.9578 21.6901C66.9956 21.7438 67.0471 21.7849 67.1063 21.8085C67.1655 21.8322 67.2299 21.8374 67.2918 21.8236Z" fill="#263238"/>
<path d="M71.5222 22.5022C71.3282 22.4563 71.1366 22.4001 70.948 22.3336C70.7379 22.3042 70.543 22.2019 70.3938 22.0428C70.3554 21.9841 70.3368 21.9135 70.3412 21.8424C70.3455 21.7712 70.3725 21.7037 70.4177 21.6508C70.5206 21.5579 70.6452 21.4959 70.7785 21.4714C70.9118 21.447 71.0488 21.4609 71.1753 21.5117C71.448 21.5715 71.6898 21.7368 71.8531 21.9753C71.8873 22.0318 71.9052 22.0975 71.9047 22.1645C71.9041 22.2315 71.8852 22.2969 71.8501 22.3527C71.815 22.4086 71.7654 22.4524 71.7071 22.4789C71.6489 22.5055 71.5847 22.5135 71.5222 22.5022Z" fill="#263238"/>
<path d="M67.1363 27.9812C67.2439 28.095 67.3476 28.2467 67.5111 28.2636C67.6787 28.2635 67.8444 28.2262 67.9975 28.154C67.9975 28.154 68.0254 28.154 67.9975 28.1793C67.9322 28.2719 67.8442 28.344 67.7431 28.3878C67.6419 28.4317 67.5314 28.4455 67.4233 28.428C67.3323 28.4017 67.2505 28.3478 67.1881 28.2729C67.1257 28.198 67.0855 28.1053 67.0725 28.0065C67.0693 27.9976 67.0696 27.9877 67.0734 27.979C67.0771 27.9703 67.0839 27.9635 67.0924 27.9601C67.1009 27.9568 67.1102 27.9571 67.1185 27.9611C67.1267 27.965 67.1331 27.9723 67.1363 27.9812Z" fill="#263238"/>
<path d="M69.7439 25.9498C69.7439 25.9498 69.7638 26.6578 69.7439 26.9908C69.1312 26.9221 68.5124 26.9448 67.9058 27.0582C67.7622 27.0919 67.7782 26.9697 67.9417 26.8896C68.4303 26.6535 68.9746 26.5772 69.5046 26.6705C69.5365 26.582 69.4528 25.5746 69.5046 25.5789C69.7458 25.6289 69.9793 25.714 70.1984 25.8317C70.1984 24.3482 69.9751 22.8815 69.9951 21.3979C69.9951 21.3473 70.0708 21.3389 70.0788 21.3979C70.3621 22.9673 70.4957 24.5629 70.4775 26.1605C70.4815 26.3417 69.8635 26.0172 69.7439 25.9498Z" fill="#263238"/>
<path d="M68.8468 26.7379C68.6879 27.1798 68.393 27.5524 68.0095 27.7958C67.4074 28.0529 67.2121 27.4755 67.8181 26.9528C68.1359 26.783 68.4918 26.7087 68.8468 26.7379Z" fill="#263238"/>
<path d="M68.2208 27.6651C68.1572 27.7199 68.0859 27.764 68.0095 27.7958C67.4553 28.0318 67.236 27.564 67.6825 27.0919C67.9856 27.1172 68.3325 27.2352 68.2208 27.6651Z" fill="#FF99BA"/>
<path d="M62.2241 23.855C62.9538 24.0911 63.7911 21.773 64.0303 20.9048C64.2376 20.1208 64.4769 17.63 64.5127 17.4572C64.5486 17.2844 67.7025 19.6614 69.5286 19.0967C71.3548 18.5319 72.5948 16.7828 72.6227 15.9694C72.6506 15.156 70.3659 13.0908 68.3923 12.9854C66.4186 12.88 63.7432 15.5142 63.7432 15.5142C64.0664 15.1265 64.3597 14.7122 64.6204 14.2751C64.5885 14.1824 63.3126 14.7218 63.0774 15.6828C63.0774 15.6828 63.3325 14.4732 63.2368 14.4521C63.1412 14.431 62.1483 15.4636 62.3716 16.2476C62.3716 16.2476 61.2233 17.297 61.1197 18.4476C61.016 19.5982 61.3669 23.5769 62.2241 23.855Z" fill="#263238"/>
<path d="M70.8364 18.6584C70.2933 18.9696 69.7084 19.1913 69.102 19.3159C68.4213 19.38 67.7362 19.2642 67.1084 18.9787C66.476 18.7204 65.8885 18.353 65.37 17.8913C64.9114 17.4951 64.5008 17.0104 64.0103 16.6564C63.8867 16.5637 63.7472 16.7533 63.8229 16.8713C64.6411 18.093 65.81 19.0034 67.1562 19.4676C67.7815 19.6831 68.4489 19.7233 69.0933 19.5845C69.7377 19.4456 70.3369 19.1323 70.8324 18.6752C70.8324 18.6752 70.8444 18.6584 70.8364 18.6584Z" fill="#263238"/>
<path d="M62.9856 23.6485C62.9856 23.6485 61.8533 21.2209 60.8326 21.6128C59.8118 22.0048 60.4338 25.3639 61.4825 25.9793C61.6109 26.0671 61.7548 26.1266 61.9056 26.1543C62.0563 26.1819 62.2108 26.1771 62.3597 26.1401C62.5086 26.1031 62.6489 26.0347 62.7723 25.939C62.8956 25.8432 62.9994 25.7222 63.0773 25.5831L62.9856 23.6485Z" fill="#EB9481"/>
<path d="M61.0359 22.5696C61.0359 22.5696 61.012 22.5696 61.0359 22.6033C61.7616 23.0585 62.0566 23.8677 62.2321 24.7106C62.199 24.6214 62.1481 24.5408 62.0827 24.4745C62.0173 24.4081 61.939 24.3575 61.8533 24.3263C61.7677 24.295 61.6766 24.2838 61.5864 24.2934C61.4962 24.303 61.409 24.3332 61.331 24.3819C61.307 24.3819 61.331 24.4283 61.331 24.4283C61.4736 24.4048 61.6196 24.4287 61.7489 24.4966C61.8781 24.5646 61.9842 24.6732 62.0526 24.8076C62.1668 25.0326 62.2577 25.27 62.3238 25.5156C62.3477 25.5957 62.4793 25.5746 62.4673 25.4861C62.6388 24.4367 62.0806 22.8478 61.0359 22.5696Z" fill="#263238"/>
<path d="M55.5096 34.4887C54.7122 39.2639 59.6084 55.3513 62.7463 58.3564C67.4153 62.8239 76.0476 65.7616 79.1776 66.7183C80.5412 67.1398 84.313 56.995 82.9335 56.3249C79.979 54.9046 70.8005 51.87 69.9273 51.1114C69.0541 50.3527 63.791 42.3153 61.4465 37.6876C58.3086 31.4583 55.9043 32.0737 55.5096 34.4887Z" fill="#EB9481"/>
<path d="M80.609 55.4314C80.609 55.4314 84.6839 56.5314 87.3115 57.3786C88.7787 57.8548 91.2269 58.9043 92.1559 59.7725C93.5434 61.0748 98.5593 67.4474 97.1239 68.7666C95.8241 69.9636 92.1718 63.9071 92.1718 63.9071C92.1718 63.9071 96.3664 69.6728 94.5641 70.8065C92.7619 71.9403 89.4645 64.5182 89.4645 64.5182C89.4645 64.5182 93.6471 70.5452 91.6017 71.4008C90.0546 72.0456 86.7373 65.5002 86.7373 65.5002C86.7373 65.5002 90.3018 70.7054 88.7309 71.4429C87.0005 72.2606 83.5834 66.419 83.5834 66.419C79.3092 67.5865 76.8052 66.2926 75.1585 65.1546C74.7717 64.8765 80.609 55.4314 80.609 55.4314Z" fill="#EB9481"/>
<path d="M90.8401 61.8124C91.3585 62.4699 91.8848 63.1358 92.3433 63.8397C92.8018 64.5435 93.2364 65.2685 93.6312 66.0144C94.166 66.9793 94.5941 68.006 94.9071 69.0743C94.2213 67.2198 92.6144 64.67 92.1559 63.9661C91.6974 63.2623 91.2707 62.5331 90.8162 61.8293C90.8042 61.8124 90.8282 61.7956 90.8401 61.8124Z" fill="#263238"/>
<path d="M88.4039 63.5194C89.2891 64.2611 91.1431 67.0175 91.8568 68.8678C91.8887 68.9436 91.8568 68.9394 91.805 68.8678C91.2468 67.9532 88.9821 64.4129 88.384 63.532C88.372 63.5194 88.392 63.5067 88.4039 63.5194Z" fill="#263238"/>
<path d="M86.0635 64.5983C87.1633 65.8177 88.0322 67.2483 88.6232 68.813C88.6511 68.8888 88.5953 68.8762 88.5515 68.813C87.7261 67.3926 87.0882 66.2842 86.0196 64.6362C86.0036 64.5983 86.0395 64.5604 86.0635 64.5983Z" fill="#263238"/>
<path d="M59.9593 34.8385C56.319 29.3974 54.142 31.412 54.8717 37.3209C55.5575 42.8464 57.3876 49.4297 57.3876 49.4297L66.5581 44.7261C66.5581 44.7261 62.2759 38.324 59.9593 34.8385Z" fill="white"/>
<path d="M62.1722 36.9796C62.2931 37.2869 62.3801 37.6079 62.4314 37.9363C62.4874 38.2657 62.5075 38.6009 62.4912 38.9352C62.3716 38.6262 62.286 38.3038 62.236 37.9742C62.1767 37.6466 62.1553 37.3126 62.1722 36.9796Z" fill="white"/>
<path d="M56.7377 40.2881C57.3229 40.0364 57.9526 39.9214 58.5837 39.9509C58.2928 40.0773 57.9891 40.1678 57.6786 40.2206C57.3687 40.2832 57.0527 40.3058 56.7377 40.2881Z" fill="white"/>
<path d="M56.9729 31.825C56.726 32.441 56.3576 32.9942 55.8924 33.4477C56.1393 32.8317 56.5077 32.2785 56.9729 31.825Z" fill="white"/>
<path d="M64.744 42.8295C64.6229 43.1378 64.4691 43.4305 64.2854 43.702C64.1066 43.9769 63.8978 44.2287 63.6634 44.4522C63.9104 43.8362 64.2787 43.283 64.744 42.8295Z" fill="white"/>
<path d="M58.3645 46.1296C58.0721 46.0032 57.7951 45.8405 57.5391 45.6449C57.2789 45.456 57.0407 45.2354 56.8294 44.9874C57.4121 45.2484 57.9354 45.6378 58.3645 46.1296Z" fill="white"/>
<path d="M61.1555 36.478C61.6459 37.1903 62.1523 37.8857 62.6547 38.5853C62.5271 38.2313 62.4155 37.8731 62.3198 37.5106H62.3437C62.4434 37.7888 62.559 38.0627 62.6547 38.3535L62.7982 38.775C62.8106 38.8038 62.8212 38.8333 62.8301 38.8635C63.2288 39.4072 63.6276 39.9509 63.9944 40.5072C64.4449 41.1732 64.8795 41.8475 65.3181 42.5218C65.7567 43.1962 66.1993 44.0349 66.6738 44.7135C66.7176 44.7725 65.8763 45.1349 65.7846 45.1813C65.6929 45.2277 65.6451 45.1476 65.7328 45.1181C65.8205 45.0886 66.4904 44.6545 66.4983 44.646C66.0597 43.9633 65.5534 43.3353 65.0948 42.6736C64.6363 42.0119 64.1818 41.3502 63.7392 40.68C62.8421 39.3145 62.0207 37.8983 61.1276 36.5286L61.1555 36.478Z" fill="#263238"/>
<path d="M55.087 41.2322C55.2265 41.5188 55.378 41.8011 55.4857 42.0962L55.6372 42.4628C55.4259 41.4134 55.2385 40.3555 55.0192 39.3061C55.4418 40.9919 55.8685 42.7157 56.2592 44.4269C56.63 46.0622 57.0806 47.7143 57.2959 49.3833C57.5739 49.2544 57.8621 49.1515 58.1571 49.0757C57.861 49.2782 57.5423 49.441 57.2082 49.5604C56.7275 47.8632 56.3283 46.1414 56.012 44.4016C55.9123 43.9295 55.8206 43.4575 55.7249 42.9855C55.6213 42.6989 55.4977 42.4249 55.3741 42.1425C55.2505 41.8601 55.1388 41.544 55.0272 41.2448C55.0511 41.2279 55.079 41.2111 55.087 41.2322Z" fill="#263238"/>
<path d="M57.5231 47.8028C58.799 47.0442 64.1299 44.1276 65.3221 43.5882C65.4058 43.5502 65.4497 43.5882 65.3659 43.6472C62.8355 45.2014 60.2267 46.6084 57.551 47.8618C57.5191 47.8703 57.4872 47.8239 57.5231 47.8028Z" fill="#263238"/>
<path d="M203.626 158.607H82.144L99.7076 53.303H221.189L203.626 158.607Z" fill="white"/>
<path d="M141.286 42.3954H101.53L99.7076 53.303H142.255L141.286 42.3954Z" fill="white"/>
<g opacity="0.1">
<path opacity="0.1" d="M203.626 158.607H82.144L99.7076 53.303H221.189L203.626 158.607Z" fill="black"/>
<path opacity="0.1" d="M141.286 42.3954H101.53L99.7076 53.303H142.255L141.286 42.3954Z" fill="black"/>
</g>
<path d="M97.2395 46.8461C96.9737 45.64 96.9737 44.3854 97.2395 43.1793C97.5053 44.3854 97.5053 45.64 97.2395 46.8461Z" fill="#263238"/>
<path d="M93.7069 47.9251C93.3009 47.4801 92.9511 46.9814 92.6662 46.4415C92.3674 45.9128 92.133 45.3464 91.9685 44.7556C92.3757 45.198 92.7256 45.6954 93.0092 46.235C93.3073 46.7655 93.5417 47.3332 93.7069 47.9251Z" fill="#263238"/>
<path d="M91.1551 50.7278C90.0347 50.3677 89.0075 49.7405 88.1527 48.8944C88.7117 49.0662 89.2476 49.3126 89.7476 49.6278C90.2584 49.9309 90.7312 50.3004 91.1551 50.7278Z" fill="#263238"/>
<path d="M90.262 54.5042C89.121 54.7852 87.9341 54.7852 86.7931 54.5042C87.9341 54.2232 89.121 54.2232 90.262 54.5042Z" fill="#263238"/>
<path d="M91.2986 58.2384C90.8759 58.6653 90.4044 59.0348 89.8951 59.3384C89.3952 59.6536 88.8592 59.9 88.3003 60.0718C88.7212 59.6426 89.193 59.2729 89.7038 58.9717C90.203 58.655 90.7391 58.4085 91.2986 58.2384Z" fill="#263238"/>
<path d="M93.9461 60.9315C93.6067 62.1177 93.0132 63.2051 92.2117 64.1094C92.3741 63.5178 92.6086 62.9511 92.9095 62.4235C93.1937 61.8817 93.5421 61.3803 93.9461 60.9315Z" fill="#263238"/>
<path d="M97.5186 61.863C97.6576 62.4628 97.7246 63.0788 97.718 63.6964C97.7266 64.314 97.6595 64.9303 97.5186 65.5298C97.3757 64.9306 97.3087 64.3141 97.3192 63.6964C97.3126 63.0788 97.3796 62.4628 97.5186 61.863Z" fill="#263238"/>
<path d="M101.051 60.8051C101.457 61.2501 101.807 61.7488 102.092 62.2887C102.392 62.8164 102.625 63.3831 102.786 63.9745C101.984 63.0702 101.391 61.9828 101.051 60.7967V60.8051Z" fill="#263238"/>
<path d="M103.599 57.9813C104.159 58.1514 104.695 58.3979 105.194 58.7146C105.705 59.0158 106.176 59.3855 106.597 59.8147C106.038 59.6445 105.502 59.398 105.003 59.0813C104.492 58.7802 104.02 58.4104 103.599 57.9813Z" fill="#263238"/>
<path d="M104.48 54.2049C105.623 53.924 106.811 53.924 107.953 54.2049C106.811 54.4858 105.623 54.4858 104.48 54.2049Z" fill="#263238"/>
<path d="M103.46 50.4707C103.882 50.0442 104.353 49.676 104.863 49.3749C105.361 49.0552 105.898 48.8072 106.458 48.6373C105.602 49.4846 104.574 50.1119 103.452 50.4707H103.46Z" fill="#263238"/>
<path d="M100.808 47.7776C100.972 47.1873 101.205 46.621 101.502 46.0917C101.787 45.5518 102.136 45.0531 102.542 44.6081C102.382 45.1996 102.148 45.7663 101.849 46.294C101.564 46.8339 101.214 47.3326 100.808 47.7776Z" fill="#263238"/>
<path d="M203.446 158.607H81.7054L64.417 57.1257H186.162L203.446 158.607Z" fill="white"/>
<path d="M106.605 119.161C109.4 119.161 111.665 116.767 111.665 113.813C111.665 110.859 109.4 108.465 106.605 108.465C103.811 108.465 101.546 110.859 101.546 113.813C101.546 116.767 103.811 119.161 106.605 119.161Z" fill="#263238"/>
<path d="M146.605 119.161C149.399 119.161 151.665 116.767 151.665 113.813C151.665 110.859 149.399 108.465 146.605 108.465C143.81 108.465 141.545 110.859 141.545 113.813C141.545 116.767 143.81 119.161 146.605 119.161Z" fill="#263238"/>
<path d="M133.874 120.017L133.595 119.457C133.571 119.406 130.955 114.298 125.696 114.298C120.911 114.298 119.715 119.107 119.683 119.313L119.54 119.924L118.38 119.629L118.519 119.014C118.519 118.955 119.947 113.033 125.696 113.033C131.677 113.033 134.536 118.63 134.655 118.871L134.934 119.427L133.874 120.017Z" fill="#263238"/>
<path d="M195.408 113.404L195.324 112.983C195.584 112.924 195.839 112.861 196.094 112.789L196.194 113.21C195.922 113.282 195.671 113.345 195.408 113.404Z" fill="#263238"/>
<path d="M197.737 112.726L197.609 112.329C198.107 112.148 198.606 111.95 199.088 111.735L199.244 112.123C198.753 112.342 198.247 112.544 197.737 112.726ZM200.707 111.381L200.528 111.01C200.994 110.753 201.461 110.475 201.903 110.167L202.111 110.526C201.656 110.859 201.182 111.141 200.707 111.381ZM203.45 109.598L203.215 109.257C203.646 108.924 204.06 108.574 204.451 108.216L204.714 108.532C204.296 108.916 203.897 109.274 203.446 109.615L203.45 109.598ZM205.882 107.356L205.591 107.065C205.958 106.644 206.305 106.222 206.624 105.801L206.939 106.058C206.608 106.522 206.253 106.956 205.89 107.373L205.882 107.356ZM207.856 104.659L207.517 104.435C207.793 103.965 208.038 103.475 208.251 102.969L208.618 103.142C208.392 103.669 208.137 104.181 207.852 104.676L207.856 104.659ZM209.176 101.532L208.777 101.413C208.923 100.885 209.031 100.345 209.1 99.7993L209.499 99.8541C209.433 100.427 209.323 100.994 209.172 101.548L209.176 101.532ZM209.618 98.1598H209.22V98.0375C209.22 97.5276 209.192 97.0092 209.144 96.4992L209.543 96.457C209.595 96.9821 209.622 97.5096 209.622 98.0375L209.618 98.1598ZM208.901 94.8597C208.793 94.3163 208.66 93.7789 208.502 93.2497L208.901 93.1232C209.064 93.6711 209.204 94.2275 209.299 94.7712L208.901 94.8597ZM207.956 91.686C207.764 91.1887 207.557 90.6787 207.302 90.1645L207.661 89.9749C207.904 90.4975 208.127 91.0201 208.323 91.5259L207.956 91.686ZM206.56 88.681C206.313 88.2216 206.042 87.7369 205.763 87.2395L206.102 87.0162C206.393 87.5177 206.668 88.0066 206.899 88.4744L206.56 88.681ZM204.894 85.8192C204.603 85.3556 204.308 84.8877 204.004 84.4199L204.335 84.1839C204.638 84.6517 204.934 85.1196 205.225 85.5916L204.894 85.8192ZM203.099 83.0291C202.8 82.5655 202.497 82.0976 202.202 81.634L202.533 81.398C202.828 81.8616 203.127 82.3294 203.426 82.7888L203.099 83.0291ZM201.317 80.2221C201.026 79.7501 200.743 79.2696 200.464 78.7891L200.803 78.57C201.082 79.0504 201.365 79.5225 201.652 79.9945L201.317 80.2221ZM199.654 77.3266C199.383 76.8167 199.132 76.3109 198.905 75.8262L199.264 75.6365C199.487 76.117 199.738 76.6143 200.001 77.1201L199.654 77.3266ZM198.239 74.2921C198.028 73.7652 197.84 73.23 197.665 72.7073L198.064 72.5725C198.231 73.0824 198.418 73.6093 198.626 74.1277L198.239 74.2921ZM197.202 71.0763C197.071 70.5284 196.955 69.9678 196.867 69.3904L197.266 69.323C197.354 69.8624 197.462 70.4103 197.593 70.9498L197.202 71.0763ZM196.668 67.7045C196.628 67.1861 196.608 66.6635 196.608 66.1409V66.0018H197.007V66.1367C197.007 66.6466 197.007 67.1608 197.067 67.6666L196.668 67.7045ZM197.067 64.3328L196.668 64.2906C196.668 64.1768 196.688 64.0588 196.7 63.9366C196.748 63.4856 196.808 63.0347 196.879 62.6048L197.278 62.6764C197.21 63.0979 197.151 63.5404 197.103 63.983C197.119 64.1136 197.119 64.2274 197.087 64.3454L197.067 64.3328ZM197.621 61.0538L197.222 60.94C197.37 60.3836 197.541 59.8399 197.733 59.3215L198.103 59.4733C197.922 59.9951 197.768 60.5269 197.641 61.0664L197.621 61.0538ZM217.489 58.5966C217.266 58.5966 217.035 58.5629 216.807 58.5292C216.496 58.4828 216.185 58.428 215.878 58.3648L215.958 57.9433C216.253 58.0023 216.56 58.0571 216.863 58.1035C217.078 58.133 217.298 58.1541 217.509 58.1667L217.489 58.5966ZM219.128 58.466L219.044 58.0445C219.545 57.9353 220.024 57.7387 220.464 57.4629L220.671 57.8211C220.201 58.1283 219.687 58.3505 219.148 58.4786L219.128 58.466ZM198.769 57.9644L198.414 57.7663C198.668 57.2637 198.949 56.7768 199.256 56.308L199.583 56.5483C199.291 57.0073 199.026 57.4844 198.789 57.9771L198.769 57.9644ZM214.319 57.9391C213.805 57.7665 213.299 57.5653 212.804 57.3364L212.968 56.9487C213.447 57.1738 213.938 57.3694 214.439 57.5345L214.319 57.9391ZM221.895 56.6241L221.564 56.3881C221.848 55.9528 222.016 55.4447 222.051 54.9172L222.449 54.9467C222.415 55.5513 222.228 56.1351 221.907 56.6368L221.895 56.6241ZM211.369 56.5609C210.902 56.2742 210.451 55.9605 210.017 55.6211L210.252 55.2839C210.675 55.613 211.114 55.917 211.568 56.1942L211.369 56.5609ZM200.564 55.2459L200.268 54.9636C200.629 54.5391 201.014 54.138 201.421 53.7624L201.684 54.0785C201.293 54.4484 200.923 54.8425 200.575 55.2586L200.564 55.2459ZM208.773 54.5337C208.376 54.147 207.999 53.7375 207.645 53.3072L207.944 53.029C208.289 53.447 208.655 53.8452 209.04 54.2218L208.773 54.5337ZM221.751 53.3915C221.523 52.9098 221.207 52.4803 220.822 52.1271L221.086 51.811C221.509 52.1983 221.857 52.6694 222.11 53.1976L221.751 53.3915ZM202.924 53.0585L202.697 52.7129C203.143 52.391 203.605 52.0942 204.08 51.8236L204.268 52.1945C203.81 52.4621 203.365 52.7547 202.936 53.0712L202.924 53.0585ZM206.648 51.9627C206.496 51.7351 206.349 51.5033 206.209 51.2631L205.691 51.478L205.54 51.0903L205.998 50.8964C205.926 50.77 205.855 50.6435 205.787 50.5171L206.134 50.3106C206.213 50.4581 206.293 50.6056 206.377 50.732C206.6 50.6477 206.827 50.5677 207.059 50.4918L207.174 50.9133C206.979 50.9765 206.776 51.0439 206.592 51.1156C206.716 51.3221 206.843 51.537 206.991 51.7183L206.648 51.9627ZM219.539 51.2378C219.153 51.0346 218.753 50.8627 218.342 50.7236L218.079 50.6351L218.195 50.2136L218.466 50.3063C218.893 50.4503 219.309 50.6292 219.71 50.8416L219.539 51.2378ZM208.701 50.4834L208.618 50.0619C209.132 49.9397 209.666 49.8385 210.213 49.7584L210.272 50.1799C209.746 50.2684 209.224 50.3738 208.713 50.496L208.701 50.4834ZM216.556 50.2558C216.058 50.1631 215.531 50.0914 214.993 50.0408L215.025 49.6194C215.579 49.6699 216.118 49.7416 216.62 49.8385L216.556 50.2558ZM211.831 50.0113L211.803 49.5899C212.278 49.5604 212.752 49.5435 213.223 49.5435H213.418V49.965H213.227C212.776 49.9776 212.306 49.9902 211.843 50.024L211.831 50.0113ZM205.093 49.004C204.878 48.4898 204.694 47.9546 204.515 47.4109L204.914 47.2802C205.081 47.8113 205.268 48.3339 205.476 48.8354L205.093 49.004ZM204.084 45.7671C203.965 45.2235 203.865 44.6587 203.789 44.0813L204.188 44.0223C204.264 44.5786 204.359 45.1307 204.475 45.666L204.084 45.7671ZM203.638 42.3954C203.618 42.0161 203.606 41.6283 203.606 41.2406C203.606 41.0594 203.606 40.8739 203.606 40.6927H204.004C204.004 40.8739 204.004 41.0509 204.004 41.2322C204.004 41.6115 204.004 41.995 204.032 42.3617L203.638 42.3954ZM204.112 39.0237L203.713 38.9815C203.769 38.4252 203.845 37.8562 203.937 37.2957L204.335 37.3673C204.228 37.9279 204.152 38.4673 204.1 39.0321L204.112 39.0237ZM204.658 35.732L204.26 35.6309C204.387 35.0872 204.535 34.5393 204.698 33.9913L205.097 34.122C204.918 34.6741 204.77 35.2094 204.646 35.7404L204.658 35.732ZM205.615 32.5415L205.245 32.3898C205.44 31.8629 205.643 31.3361 205.886 30.8261L206.245 31.0116C206.006 31.5173 205.795 32.0315 205.603 32.5668L205.615 32.5415ZM206.987 29.5364L206.64 29.3215C206.911 28.8368 207.202 28.3521 207.505 27.8885L207.832 28.1287C207.521 28.5923 207.238 29.0644 206.975 29.5449L206.987 29.5364ZM208.785 26.7927L208.474 26.5272C208.809 26.1057 209.168 25.6589 209.539 25.2628L209.826 25.5536C209.451 25.9497 209.1 26.3712 208.773 26.8011L208.785 26.7927ZM210.954 24.365L210.687 24.0531C211.086 23.678 211.484 23.3071 211.911 22.9489L212.158 23.2819C211.732 23.6401 211.325 24.0068 210.942 24.3735L210.954 24.365ZM213.43 22.283L213.203 21.9332C213.638 21.6171 214.092 21.3052 214.555 21.0101L214.758 21.3684C214.295 21.6676 213.865 21.9753 213.418 22.2914L213.43 22.283ZM216.138 20.5423L215.95 20.1714C216.421 19.9059 216.907 19.653 217.393 19.417L217.561 19.8005C217.055 20.0408 216.588 20.2937 216.126 20.5507L216.138 20.5423ZM219.02 19.143L218.873 18.7469C219.375 18.5403 219.881 18.3254 220.384 18.1695L220.511 18.5909C220.005 18.7511 219.503 18.945 219.008 19.1515L219.02 19.143Z" fill="#263238"/>
<path d="M222.094 18.0767L221.995 17.6553C222.489 17.5204 222.792 17.4614 222.792 17.4614L222.864 17.8829C222.864 17.8829 222.577 17.9461 222.094 18.0767Z" fill="#263238"/>
<path d="M229.144 15.3541C228.127 12.0245 221.317 13.2214 222.645 17.5752C223.972 21.929 230.16 18.6879 229.144 15.3541Z" fill="#263238"/>
<path d="M218.94 14.0222C218.992 12.5597 220.914 11.4344 223.633 11.9528C226.353 12.4712 228.908 14.41 228.908 14.41C228.908 14.41 226.225 16.1295 223.478 16.4456C220.731 16.7617 218.889 15.4805 218.94 14.0222Z" fill="#EBEBEB"/>
<path d="M228.908 14.4015C227.497 14.4015 226.09 14.3594 224.682 14.313C223.275 14.2667 221.863 14.1908 220.456 14.0728C221.867 14.0728 223.279 14.1107 224.686 14.1571C226.094 14.2035 227.505 14.2793 228.908 14.4015Z" fill="#263238"/>
<path d="M221.672 12.7199C222.473 13.1251 223.229 13.6242 223.924 14.2077C223.523 14.0088 223.135 13.7835 222.76 13.5333C222.383 13.2848 222.019 13.0132 221.672 12.7199Z" fill="#263238"/>
<path d="M225.368 14.2625C224.647 14.8804 223.865 15.4145 223.035 15.8556C223.76 15.2369 224.546 14.7028 225.38 14.2625H225.368Z" fill="#263238"/>
<path d="M225.778 13.4406C226.181 13.6448 226.533 13.9449 226.807 14.3172C226.606 14.2169 226.417 14.0909 226.245 13.9421C226.072 13.7943 225.915 13.626 225.778 13.4406Z" fill="#263238"/>
<path d="M221.532 22.6834C222.381 23.8382 224.562 23.56 226.48 21.4611C228.398 19.3622 229.415 16.2054 229.415 16.2054C229.415 16.2054 226.273 16.4583 223.877 17.8913C221.48 19.3243 220.679 21.5243 221.532 22.6834Z" fill="#EBEBEB"/>
<path d="M229.415 16.2054C228.266 17.0484 227.15 17.984 226.03 18.8902C224.909 19.7963 223.813 20.732 222.74 21.6971C223.889 20.8542 225.005 19.9228 226.121 19.0166C227.238 18.1105 228.326 17.1748 229.415 16.2054Z" fill="#263238"/>
<path d="M224.463 22.0301C224.676 21.6207 224.866 21.1985 225.033 20.7657C225.203 20.3317 225.346 19.8869 225.464 19.4339C225.25 19.8429 225.059 20.2651 224.893 20.6983C224.725 21.1329 224.582 21.5777 224.463 22.0301Z" fill="#263238"/>
<path d="M226.624 18.5066C225.691 18.4539 224.755 18.5062 223.833 18.6626C224.298 18.6921 224.764 18.6921 225.228 18.6626C225.696 18.6385 226.162 18.5864 226.624 18.5066Z" fill="#263238"/>
<path d="M227.393 18.9239C227.5 18.7158 227.583 18.4951 227.64 18.2664C227.7 18.0394 227.734 17.8062 227.744 17.571C227.532 17.9882 227.412 18.4507 227.393 18.9239Z" fill="#263238"/>
<path d="M229.144 15.3541C228.918 15.4314 228.677 15.4363 228.449 15.3682C228.221 15.3001 228.017 15.1621 227.864 14.9716C227.71 14.7812 227.614 14.5468 227.586 14.2982C227.559 14.0497 227.602 13.7981 227.71 13.5753C227.817 13.3525 227.985 13.1686 228.192 13.0468C228.399 12.9251 228.635 12.8709 228.871 12.8913C229.107 12.9116 229.332 13.0055 229.518 13.161C229.703 13.3166 229.841 13.5268 229.913 13.7651C230.01 14.0837 229.983 14.4298 229.839 14.7277C229.695 15.0255 229.445 15.2507 229.144 15.3541Z" fill="#455A64"/>
<path d="M229.877 17.7606C229.652 17.8376 229.411 17.8423 229.183 17.7742C228.956 17.7061 228.752 17.5681 228.599 17.3778C228.445 17.1875 228.349 16.9534 228.321 16.7051C228.293 16.4568 228.336 16.2054 228.444 15.9827C228.551 15.76 228.719 15.576 228.925 15.454C229.132 15.332 229.368 15.2774 229.604 15.2972C229.84 15.317 230.064 15.4102 230.25 15.5651C230.436 15.72 230.574 15.9297 230.647 16.1675C230.695 16.3255 230.714 16.4921 230.701 16.6577C230.689 16.8233 230.646 16.9847 230.574 17.1326C230.503 17.2806 230.405 17.4122 230.285 17.5199C230.165 17.6277 230.027 17.7095 229.877 17.7606Z" fill="#455A64"/>
<path d="M99.1574 16.6859C98.9663 18.6218 98.2701 20.4634 97.1465 22.0054C96.0229 23.5473 94.516 24.7289 92.794 25.4183C91.0721 26.1076 89.2028 26.2776 87.3947 25.9093C85.5867 25.541 83.911 24.6489 82.5547 23.3324L77.5827 24.1037L80.0707 19.5603C79.5017 18.082 79.259 16.486 79.3609 14.8936C79.4628 13.3013 79.9067 11.7544 80.6588 10.3705C81.4109 8.98662 82.4515 7.80211 83.7015 6.90697C84.9515 6.01183 86.3781 5.42959 87.8729 5.20448C89.3676 4.97938 90.8913 5.11732 92.3281 5.60784C93.7648 6.09835 95.077 6.92854 96.1648 8.03533C97.2526 9.14213 98.0875 10.4964 98.606 11.9954C99.1246 13.4943 99.3131 15.0984 99.1574 16.6859Z" fill="white"/>
<path d="M99.1574 16.6859C98.9704 18.6208 98.2804 20.4632 97.1638 22.009C96.6183 22.7909 95.9604 23.4777 95.2141 24.0447C94.4841 24.633 93.6786 25.1084 92.8218 25.4566C91.9645 25.8135 91.0638 26.0405 90.1464 26.131C89.6877 26.1745 89.2268 26.1843 88.7668 26.1605C88.3052 26.1479 87.8453 26.0972 87.3912 26.0088C85.5588 25.6524 83.8565 24.7636 82.475 23.442L82.5907 23.48L77.6266 24.285L77.2638 24.344L77.4472 24.0068L79.9192 19.4549V19.6362C79.3359 18.1305 79.0879 16.5033 79.1944 14.8801C79.3008 13.257 79.7589 11.6815 80.5333 10.2754C81.3066 8.87366 82.3698 7.67491 83.6433 6.76877C84.9147 5.87466 86.3611 5.29643 87.874 5.07745C89.387 4.85848 90.9272 5.00443 92.3792 5.50437C93.8158 6.02099 95.125 6.8706 96.2109 7.99102C97.2944 9.10864 98.1229 10.4725 98.6334 11.979C99.144 13.4856 99.3232 15.0952 99.1574 16.6859ZM99.1574 16.6859C99.3185 15.1031 99.1334 13.5023 98.6163 12.0071C98.0991 10.5119 97.2639 9.16236 96.1749 8.06262C95.086 6.96288 93.7725 6.14238 92.336 5.66446C90.8994 5.18655 89.3781 5.06399 87.8896 5.30628C86.416 5.53683 85.0123 6.12228 83.7868 7.01743C82.5718 7.91961 81.5569 9.09023 80.8124 10.4482C80.0793 11.8091 79.6472 13.3278 79.5484 14.8904C79.4513 16.4636 79.6912 18.0397 80.2502 19.5013L80.2861 19.594L80.2382 19.6825L77.7342 24.2175L77.5588 23.9394L82.5348 23.2018H82.6026L82.6505 23.2481C83.9806 24.5568 85.629 25.4485 87.4112 25.8233C87.8553 25.919 88.306 25.9767 88.7588 25.9961C89.2115 26.0298 89.6658 26.0298 90.1185 25.9961C91.0262 25.9188 91.9197 25.7103 92.7739 25.3766C93.6301 25.0471 94.436 24.587 95.1662 24.011C95.9095 23.4486 96.5681 22.7708 97.12 22.0006C98.2509 20.4622 98.9562 18.6225 99.1574 16.6859Z" fill="#263238"/>
<path d="M84.4168 20.4917C84.4091 20.3522 84.4287 20.2125 84.4742 20.0813C84.5198 19.9501 84.5904 19.8302 84.6816 19.729C84.7728 19.6278 84.8828 19.5475 85.0046 19.4931C85.1264 19.4388 85.2574 19.4114 85.3897 19.4128C85.6604 19.4128 85.92 19.5265 86.1114 19.7288C86.3028 19.9312 86.4104 20.2056 86.4104 20.4917C86.4104 20.7779 86.3028 21.0523 86.1114 21.2547C85.92 21.457 85.6604 21.5707 85.3897 21.5707C85.2574 21.5721 85.1264 21.5447 85.0046 21.4903C84.8828 21.436 84.7728 21.3557 84.6816 21.2545C84.5904 21.1533 84.5198 21.0334 84.4742 20.9022C84.4287 20.771 84.4091 20.6313 84.4168 20.4917ZM84.8155 18.0009L84.5842 9.63896H86.1791L85.9479 18.0009H84.8155Z" fill="white"/>
<path d="M88.2086 20.4917C88.2009 20.3526 88.2204 20.2132 88.2657 20.0823C88.311 19.9514 88.3812 19.8317 88.472 19.7305C88.5628 19.6294 88.6722 19.5491 88.7936 19.4944C88.9149 19.4398 89.0456 19.412 89.1774 19.4128C89.4482 19.4128 89.7078 19.5265 89.8992 19.7288C90.0906 19.9312 90.1982 20.2056 90.1982 20.4917C90.1982 20.7779 90.0906 21.0523 89.8992 21.2547C89.7078 21.457 89.4482 21.5707 89.1774 21.5707C89.0456 21.5715 88.9149 21.5437 88.7936 21.4891C88.6722 21.4344 88.5628 21.3541 88.472 21.253C88.3812 21.1518 88.311 21.0321 88.2657 20.9012C88.2204 20.7703 88.2009 20.6309 88.2086 20.4917ZM88.6073 18.0009L88.388 9.63896H89.9828L89.7516 18.0009H88.6073Z" fill="white"/>
<path d="M91.9965 20.4917C91.9888 20.3522 92.0084 20.2125 92.0539 20.0813C92.0995 19.9501 92.1701 19.8302 92.2613 19.729C92.3525 19.6278 92.4624 19.5475 92.5842 19.4931C92.706 19.4388 92.8371 19.4114 92.9693 19.4128C93.24 19.4128 93.4997 19.5265 93.6911 19.7288C93.8825 19.9312 93.99 20.2056 93.99 20.4917C93.99 20.7779 93.8825 21.0523 93.6911 21.2547C93.4997 21.457 93.24 21.5707 92.9693 21.5707C92.8371 21.5721 92.706 21.5447 92.5842 21.4903C92.4624 21.436 92.3525 21.3557 92.2613 21.2545C92.1701 21.1533 92.0995 21.0334 92.0539 20.9022C92.0084 20.771 91.9888 20.6313 91.9965 20.4917ZM92.3952 18.0009L92.1639 9.63896H93.7588L93.5315 18.0009H92.3952Z" fill="white"/>
</svg>
