<svg xmlns="http://www.w3.org/2000/svg" width="244" height="169" fill="none" xmlns:v="https://vecta.io/nano"><style><![CDATA[.B{fill:#263238}.C{fill:#fff}.D{fill:#eb9481}.E{fill:#ebebeb}.F{fill:#dbdbdb}]]></style><path d="M239.762 39.846l-3.816 19.535-2.456-2.533L229.311 60l-3.194-4.194-7.161 5.504-6.12-10.819-6.826 4.227-2.707-3.945-8.668 5.163-2.608-5.905 6.076-31.109 32.576 7.11 9.083 13.812z" class="E"/><path d="M230.679 26.034l9.083 13.812-11.3-2.466 2.217-11.346z" class="F"/><path d="M235.133 63.283l-5.595 28.66-43.879-9.576 5.555-28.428 2.607 5.901 8.672-5.163 2.704 3.945 6.83-4.223 6.116 10.819 7.165-5.504 3.19 4.189 4.182-3.148 2.453 2.529zm-62.803-3.359l-44.716 2.925-3.553-60.674L157.267 0l12.188 10.811 2.875 49.114z" class="E"/><path d="M157.267 0l12.189 10.811-11.515.754L157.267 0zm-12.381 40.828l-.175-1.37c-.451-2.837.283-6.01 2.616-9.327 2.105-2.95 3.245-5.058 3.118-7.451-.144-2.697-1.839-4.4-4.992-4.265-1.803.099-3.534.775-4.964 1.939l-1.376-3.258c1.595-1.37 4.386-2.381 7.037-2.529 5.754-.337 8.553 3.262 8.772 7.279.192 3.595-1.571 6.297-3.812 9.454-2.057 2.879-2.731 5.251-2.44 7.936l.124 1.374-3.908.219zm-.709 7.464c-.104-1.956 1.072-3.405 2.823-3.507s3.026 1.197 3.13 3.157c.095 1.85-.977 3.342-2.827 3.452-1.767.105-3.043-1.252-3.142-3.102h.016z" class="F"/><g class="E"><path d="M33.038 30.506l-4.497-2.154-.626 1.454a1.25 1.25 0 0 1-.417.513c-.18.128-.39.201-.607.212a5.47 5.47 0 0 0-.738.076 1.14 1.14 0 0 1-.633-.082 1.21 1.21 0 0 1-.503-.415l-.881-1.302-4.015 3.043.881 1.302a1.31 1.31 0 0 1 .209.635c.014.228-.03.455-.129.659l-.307.712a1.26 1.26 0 0 1-.384.542 1.16 1.16 0 0 1-.593.255l-1.503.156.482 5.197 1.511-.16a1.14 1.14 0 0 1 .629.129 1.22 1.22 0 0 1 .476.453l.203.32.219.308c.138.177.226.391.256.618a1.3 1.3 0 0 1-.088.668l-.63 1.467 4.502 2.158.626-1.462a1.23 1.23 0 0 1 .42-.511 1.15 1.15 0 0 1 .609-.209 6.12 6.12 0 0 0 .73-.076 1.13 1.13 0 0 1 .633.083 1.21 1.21 0 0 1 .503.415l.881 1.302 4.019-3.043-.881-1.302a1.27 1.27 0 0 1-.215-.635 1.29 1.29 0 0 1 .135-.659 7.79 7.79 0 0 0 .299-.708c.077-.216.209-.404.381-.545a1.14 1.14 0 0 1 .596-.252l1.511-.16-.486-5.197-1.511.156a1.12 1.12 0 0 1-.625-.125 1.2 1.2 0 0 1-.471-.452l-.207-.32-.219-.308a1.3 1.3 0 0 1-.254-.622 1.33 1.33 0 0 1 .087-.672l.626-1.458zm-2.552 4.809a4.44 4.44 0 0 1 .755 2.352c.026.846-.185 1.681-.608 2.399a4.13 4.13 0 0 1-1.767 1.637 3.85 3.85 0 0 1-2.33.324c-.79-.138-1.523-.52-2.107-1.099a4.34 4.34 0 0 1-1.174-2.151 4.51 4.51 0 0 1 .154-2.478c.282-.792.78-1.477 1.431-1.97.872-.66 1.957-.927 3.016-.743s2.005.807 2.63 1.729zm205.859 64.143l-2.999 1.829.53.969c.08.14.119.3.114.462a.88.88 0 0 1-.141.453l-.26.472a.83.83 0 0 1-.298.353c-.129.085-.279.129-.431.128h-1.053v3.662h1.061c.152-.002.302.042.431.127a.83.83 0 0 1 .298.354 5.94 5.94 0 0 0 .26.472c.087.133.136.29.141.453a.87.87 0 0 1-.114.461l-.53.97 2.999 1.829.534-.974a.83.83 0 0 1 .324-.325.78.78 0 0 1 .437-.096h.511a.78.78 0 0 1 .437.097c.134.074.247.186.324.324l.535.978 2.994-1.829-.53-.974c-.076-.14-.113-.299-.107-.46a.89.89 0 0 1 .139-.45l.259-.472c.065-.146.169-.268.298-.353s.279-.13.431-.128H244v-3.662h-1.069c-.152.002-.302-.043-.431-.128s-.233-.207-.298-.353l-.259-.472a.9.9 0 0 1-.139-.45c-.006-.161.031-.32.107-.46l.53-.974-2.994-1.829-.535.961a.83.83 0 0 1-.324.325.78.78 0 0 1-.437.097h-.255-.256a.79.79 0 0 1-.438-.098.85.85 0 0 1-.327-.324l-.53-.965zm1.551 3.498a2.73 2.73 0 0 1 1.578.504 2.97 2.97 0 0 1 1.048 1.347c.215.548.271 1.152.162 1.734a3.06 3.06 0 0 1-.777 1.538 2.79 2.79 0 0 1-1.455.821 2.7 2.7 0 0 1-1.641-.171 2.88 2.88 0 0 1-1.274-1.108c-.311-.494-.477-1.074-.476-1.668a3.14 3.14 0 0 1 .214-1.148c.143-.364.351-.695.615-.974a2.84 2.84 0 0 1 .92-.651 2.7 2.7 0 0 1 1.086-.228v.004zM42.137 14.933l-2.747 2.225.634.889a.87.87 0 0 1 .168.44.88.88 0 0 1-.084.466c-.076.164-.143.333-.199.506a.87.87 0 0 1-.255.389.8.8 0 0 1-.411.189l-1.053.143.447 3.629 1.053-.143a.78.78 0 0 1 .45.068.84.84 0 0 1 .347.311c.096.147.2.287.311.422.103.119.171.267.196.427a.89.89 0 0 1-.053.471l-.399 1.037 3.19 1.404.399-1.037a.85.85 0 0 1 .282-.37.79.79 0 0 1 .424-.157l.255-.03.251-.042a.78.78 0 0 1 .441.04c.141.056.264.151.357.276l.65.898 2.747-2.225-.642-.889a.9.9 0 0 1-.164-.443.91.91 0 0 1 .081-.468c.076-.163.142-.33.199-.502a.87.87 0 0 1 .255-.389.8.8 0 0 1 .411-.189l1.053-.143-.447-3.629-1.053.143a.78.78 0 0 1-.45-.066.83.83 0 0 1-.348-.309c-.1-.152-.203-.295-.315-.421-.093-.122-.153-.268-.174-.423a.92.92 0 0 1 .054-.458l.399-1.037-3.19-1.404-.399 1.037a.87.87 0 0 1-.282.369c-.124.093-.271.148-.423.158l-.255.025-.235.009a.78.78 0 0 1-.441-.04c-.141-.056-.264-.151-.357-.276l-.678-.881zm1.966 3.258a2.7 2.7 0 0 1 1.621.288 2.91 2.91 0 0 1 1.198 1.19 3.13 3.13 0 0 1 .371 1.693 3.1 3.1 0 0 1-.58 1.626A2.84 2.84 0 0 1 45.377 24a2.69 2.69 0 0 1-1.643.059 2.82 2.82 0 0 1-1.398-.915c-.371-.444-.608-.994-.682-1.581a3.16 3.16 0 0 1 .07-1.171 3.07 3.07 0 0 1 .49-1.053 2.89 2.89 0 0 1 .835-.773 2.74 2.74 0 0 1 1.052-.375zm-22.492 91.833a122.8 122.8 0 0 0-.16-12.222 164.58 164.58 0 0 0-3.624-24.934c-1.013-4.611-2.257-9.146-3.557-13.677-.04-.139-.247-.101-.211.042 4.015 15.974 7.309 32.453 7.081 49.059-.064 4.636-.574 9.209-.989 13.828 0 .122.179.173.207.047.825-3.966 1.097-8.105 1.252-12.143z"/><path d="M14.059 59.22S7.982 75.531 9.342 79.35s4.167 4.636 4.167 4.636-3.72 5.614-1.12 10.878 8.373 5.016 8.772 10.983c-.012.03.307-24.925-7.101-46.627z"/></g><path d="M20.486 95.572c.01-.027.01-.057 0-.084a156.94 156.94 0 0 0-5.893-32.811c0-.029-.06-.021-.052 0 1.204 4.777 2.267 9.573 3.19 14.389a6.64 6.64 0 0 0-2.903-1.711s-.032.025 0 .034a7.7 7.7 0 0 1 2.998 2.107l.514 2.841c-1.36-1.606-3.242-2.402-5.128-3.161-.013.013-.014.018-.014.023.006.018.01.021.014.023 1.966.843 3.919 1.93 5.251 3.722a200.67 200.67 0 0 1 1.22 8.147 7.27 7.27 0 0 0-3.624-2.196c-.044 0-.068.055-.024.067 1.421.442 2.69 1.312 3.652 2.504h.024l.343 2.879a9.22 9.22 0 0 0-2.54-1.618c-.024 0-.04.029 0 .038.942.431 1.804 1.035 2.548 1.783h.032l.287 2.744c-1.369-1.75-3.146-3.092-5.155-3.894-.008 0-.017.004-.023.01s-.009.015-.009.024.003.018.009.024.014.01.023.01c1.984.924 3.727 2.343 5.08 4.135a.12.12 0 0 0 .058.042c.023.007.047.008.07 0l.347 4.215c0 .021.032.021.032 0l-.327-4.282zm-4.884-21.824c-1.1-.724-2.358-1.139-3.652-1.205-.021.012-.024.019-.024.025.011.023.018.025.024.025a13.88 13.88 0 0 1 3.612 1.264c.048.013.084-.076.04-.11zm.738 17.268a7.33 7.33 0 0 0-2.743-.99c-.032 0-.036.046 0 .055a10.02 10.02 0 0 1 2.711 1.003c.036.021.068-.046.032-.067z" class="C"/><g class="E"><path d="M37.591 79.632c-2.571 1.878-4.931 4.059-7.037 6.499-2.172 2.584-3.847 5.59-4.932 8.851-2.309 6.793-3.551 13.94-3.676 21.158-.077 3.996.285 7.989 1.081 11.898.006.028.023.053.046.069s.051.021.079.016.051-.022.067-.046.023-.053.019-.082c-.99-6.896-.952-13.914.112-20.799 1.045-6.743 2.683-14.085 6.742-19.569 2.209-2.988 4.964-5.336 7.687-7.763.144-.135-.04-.341-.187-.232z"/><path d="M22.839 111.276c1.463-2.502 3.183-4.826 5.128-6.929 3.042-3.216 5.602-5.5 6.001-7.624s-3.046-3.692-3.046-3.692 4.206.801 5.359-1.066 1.706-12.682 1.706-12.682-7.655 5.778-11.224 13.879-3.923 18.115-3.923 18.115z"/></g><path d="M35.239 89.427c-.504-.079-1.015-.098-1.523-.055-.06 0-.056.109 0 .114h1.511c.019-.014.022-.02.023-.026-.003-.024-.007-.03-.011-.033zm-5.499 10.49a6.53 6.53 0 0 0-2.36.498v.038c.797-.199 1.567-.279 2.357-.422a.06.06 0 0 0 .025-.022c.006-.01.01-.022.01-.034s-.002-.024-.008-.034-.014-.019-.024-.024zm-1.65-3.624a4.99 4.99 0 0 0-1.001.093c-.019.018-.021.025-.021.032.355.052.691.036 1.022-.015.014 0 .027-.006.037-.016s.015-.024.015-.039-.006-.028-.015-.039-.023-.016-.037-.016z" class="C"/><g class="E"><path d="M.395 91.104c2.492.893 4.879 2.082 7.117 3.544 2.322 1.56 4.335 3.581 5.929 5.951 3.353 4.933 5.92 10.413 7.6 16.222a45.43 45.43 0 0 1 1.722 9.896.1.1 0 0 1-.032.056c-.016.014-.037.021-.058.021s-.041-.007-.058-.021-.028-.034-.032-.056c-.704-5.822-2.267-11.493-4.633-16.804-2.325-5.205-5.255-10.743-9.737-14.19-2.44-1.876-5.183-3.106-7.919-4.404-.144-.05-.044-.266.1-.215z"/><path d="M19.254 113.109c-1.732-1.666-3.632-3.126-5.666-4.354-3.166-1.858-5.738-3.08-6.523-4.703s1.659-3.73 1.659-3.73-3.23 1.686-4.569.442S0 90.923 0 90.923s7.46 2.803 12.113 8.488 7.141 13.697 7.141 13.697z"/></g><path d="M13.062 105.194c-.733-.054-1.47.042-2.169.282v.034c.713-.129 1.434-.208 2.157-.236.052 0 .064-.076.012-.08zm-6.507-9.019a3.47 3.47 0 0 0-1.001.059c-.036 0-.024.067 0 .063.331-.038.654-.025.981-.034.01 0 .02-.003.028-.009s.014-.016.016-.026.001-.021-.003-.031-.012-.017-.021-.022z" class="C"/><path d="M28.875 137.588H12.037l2.4-18.591.614-4.767h10.809l.614 4.767 2.4 18.591z" class="F"/><path d="M26.475 118.997H14.438l.614-4.767h10.809l.614 4.767z" fill="#c7c7c7"/><path d="M27.404 112.578H13.505v4.038h13.899v-4.038z" class="F"/><path d="M1.332 137.588l30.307-.101 30.307-.038 60.613-.072 60.613.072 30.307.038 30.307.101-30.307.105-30.307.034-60.613.072-60.613-.072-30.307-.038-30.307-.101z" class="B"/><path d="M123.356 169c63.142 0 114.328-5.929 114.328-13.242s-51.186-13.243-114.328-13.243S9.027 148.444 9.027 155.758 60.214 169 123.356 169z" class="E"/><path d="M96.741 153.566c-.929.333-27.567.421-28.588-.245-.399-.252-.626-4.353-.797-9.318l-.088-3.3-2.125-15.021 17.811-.123 1.679 15.026-.068 3.304s10.215 4.784 11.26 5.652 1.846 3.692.917 4.025z" class="D"/><path d="M96.741 153.566c-.929.333-27.567.421-28.588-.245-.471-.311-.726-6.301-.869-12.618l17.328-.118-.068 3.304s10.215 4.784 11.26 5.652 1.866 3.692.937 4.025z" class="C"/><path d="M96.741 153.566c-.929.333-27.568.421-28.588-.245-.399-.252-.626-4.353-.797-9.318l17.173-.114s10.215 4.784 11.26 5.652 1.882 3.692.953 4.025z" fill="#a6a6a6"/><g class="B"><path d="M96.354 152.441c-4.466-.102-22.488-.055-26.91.206-.036 0-.036.025 0 .03 4.426.198 22.448 0 26.91-.161.096-.004.096-.075 0-.075zm-2.268-3.907a3.42 3.42 0 0 0-1.449.285 3.59 3.59 0 0 0-1.218.878 3.76 3.76 0 0 0-.989 2.529c0 .029.048.029.052 0 .148-.933.578-1.79 1.225-2.443s1.476-1.068 2.364-1.182c.008.002.017.001.025-.004s.013-.012.015-.021.001-.019-.004-.027-.012-.013-.02-.015zm-7.811-4.181c-1.786-.021-3.856.653-4.964 2.204-.04.059.04.122.092.093a24.09 24.09 0 0 1 4.904-2.066.11.11 0 0 0 .064-.049c.015-.024.021-.053.017-.081s-.017-.055-.038-.074-.047-.028-.075-.027zm1.387.56c-1.79 0-3.86.658-4.964 2.204-.044.064.036.127.092.097a23.86 23.86 0 0 1 4.9-2.069c.026-.008.048-.025.063-.048s.021-.053.018-.081a.12.12 0 0 0-.036-.073c-.02-.019-.046-.029-.073-.03z"/><path d="M89.042 145.478c-1.786 0-3.856.653-4.964 2.204-.04.059.04.122.092.093a24.03 24.03 0 0 1 4.904-2.065c.026-.008.049-.025.064-.049s.021-.054.017-.082-.018-.055-.038-.073-.047-.029-.075-.028zm1.384.565c-1.79-.021-3.86.653-4.964 2.204-.044.059.04.122.092.093a23.95 23.95 0 0 1 4.904-2.066.11.11 0 0 0 .064-.049c.015-.024.021-.053.017-.081s-.018-.055-.038-.073-.047-.029-.075-.028zm-19.857 2.115c-1.993 0-1.993 3.309 0 3.296s2.01-3.308 0-3.296zm17.624-8.855c-.905-.792-2.045 0-2.6.814-.923 1.438-1.472 3.106-1.595 4.838 0 .038.028.055.056.055a.23.23 0 0 0 .044.097.21.21 0 0 0 .081.065c.031.014.066.021.101.018a.2.2 0 0 0 .097-.032c1.268-.932 2.735-1.766 3.696-3.086.546-.767.993-2.031.12-2.769zm-2.177 4.021l-1.846 1.421 1.001-2.807a10.78 10.78 0 0 1 .646-1.265c.399-.628 2.137-2.213 2.321-.16.104 1.125-1.391 2.246-2.121 2.811z"/><path d="M79.548 145.672c1.555.244 3.162-.228 4.689-.485.033-.009.064-.026.09-.05a.23.23 0 0 0 .059-.088c.013-.033.018-.07.015-.106s-.014-.071-.032-.101c.006-.005.011-.011.014-.018s.005-.015.005-.023-.002-.015-.005-.022-.008-.013-.014-.018a9.2 9.2 0 0 0-4.33-2.305c-.941-.19-2.273.084-2.392 1.319-.144 1.163.993 1.745 1.902 1.897zm-1.085-1.071c-1.196-1.618 1.089-1.757 1.774-1.589a9.84 9.84 0 0 1 1.308.447 26.85 26.85 0 0 1 2.556 1.286l-2.257.333c-.901.126-2.711.413-3.381-.477z"/></g><path d="M38.955 56.253s20.682 37.19 21.236 39.803c.849 4.012 5.351 43.634 5.351 43.634l21.531-.421s-3.708-34.936-7.221-46.446c-2.528-8.29-20.781-35.787-20.781-35.787l-20.115-.784z" fill="#37474f"/><path d="M85.115 135.797c-3.09-.025-14.043-.156-18.158.248-.032 0-.028.059 0 .064 1.415.215 15.063-.118 18.154-.224.007.003.013.004.02.003s.013-.004.019-.008a.05.05 0 0 0 .014-.015c.004-.006.005-.014.006-.021s-.001-.015-.004-.021-.007-.013-.012-.017-.012-.008-.018-.01-.014-.001-.02.001zm-42.631-76.13l4.171 6.676 4.135 6.685 7.974 13.575a42.5 42.5 0 0 1 3.23 6.655c.808 2.317 1.415 4.707 1.814 7.14l.961 7.371.833 7.869 1.703 16.108.199 1.977c0 .097-.156.114-.168 0l-1.734-16.016-.857-7.978-.885-7.409c-.333-2.426-.84-4.821-1.515-7.165a35.4 35.4 0 0 0-2.974-6.954c-2.492-4.548-5.132-9.015-7.771-13.487l-8.134-13.398-1.049-1.623c-.028-.029.044-.067.068-.025z" class="B"/><path d="M45.733 155.757c-.981-.063-26.315-10.911-27.017-11.94a.37.37 0 0 1-.04-.198c0-.923 1.758-4.143 3.226-8.374.092-.27.746-1.526 1.651-3.216l6.902-12.61 16.559 6.954-7.927 12.538-1.232 3.035s7.771 8.493 8.425 9.694.431 4.177-.546 4.117z" class="D"/><path d="M45.733 155.758c-.981-.064-26.315-10.912-27.017-11.941a.37.37 0 0 1-.04-.198c0-.923 1.758-4.143 3.226-8.374.092-.27.746-1.526 1.651-3.216l15.55 6.882-1.232 3.035s7.771 8.493 8.425 9.694.415 4.177-.562 4.118z" class="C"/><path d="M45.733 155.758c-.981-.064-26.315-10.912-27.017-11.941-.271-.392.861-4.046 3.19-8.572l15.949 6.705s7.771 8.484 8.429 9.694.427 4.173-.55 4.114z" fill="#a6a6a6"/><g class="B"><path d="M45.773 154.561c-4.103-1.863-20.825-8.969-25.016-10.478-.036 0-.044 0 0 .025 4.031 1.939 20.805 8.902 25 10.537.08.021.104-.047.016-.084zm-.718-4.523a3.43 3.43 0 0 0-2.887 0 3.58 3.58 0 0 0-1.81 1.947c0 .026.036.047.048.021.47-.808 1.175-1.433 2.01-1.782a3.94 3.94 0 0 1 2.619-.152c.007-.002.013-.007.016-.013s.005-.014.004-.021zm-5.753-6.971c-1.647-.729-3.808-.923-5.383.076-.06.038 0 .126.052.122a23.53 23.53 0 0 1 5.279.03.11.11 0 0 0 .076-.021.12.12 0 0 0 .044-.069c.006-.028.003-.057-.01-.083s-.034-.045-.059-.055zm1.08 1.071c-1.647-.729-3.808-.923-5.383.076-.06.037 0 .126.052.122a23.24 23.24 0 0 1 5.279.029c.027.003.054-.004.076-.021s.038-.041.044-.068.003-.058-.01-.083-.034-.045-.059-.055z"/><path d="M41.467 145.208c-1.651-.729-3.812-.923-5.383.076-.064.038 0 .126.048.122a23.3 23.3 0 0 1 5.279.03c.027.005.056-.002.079-.018s.04-.04.047-.069.004-.059-.01-.085-.035-.046-.061-.056zm1.08 1.071c-1.651-.729-3.808-.923-5.383.071-.064.043 0 .131.048.127a23.24 23.24 0 0 1 5.279.029c.027.005.056-.001.079-.017a.12.12 0 0 0 .037-.154c-.014-.026-.035-.046-.061-.056zm-19.158-5.913c-1.862-.784-3.018 2.28-1.148 3.064s3.03-2.281 1.148-3.064zm19.481-1.219c-.562-1.091-1.89-.821-2.699-.278-1.364.966-2.463 2.293-3.19 3.848-.003.007-.005.015-.005.022s.002.015.005.022.008.013.013.018.012.008.019.01c0 .139.088.303.243.27 1.511-.367 3.166-.557 4.521-1.4.778-.488 1.623-1.479 1.093-2.512zm-3.449 2.862l-2.209.586c.604-.769 1.244-1.504 1.918-2.204a10.21 10.21 0 0 1 1.057-.927c.578-.422 2.763-1.202 2.205.775-.307 1.092-2.089 1.534-2.97 1.77z"/><path d="M32.595 141.621c1.356.843 3.01 1.042 4.517 1.412.156.038.259-.126.247-.269.007-.001.015-.004.021-.009s.011-.011.014-.018.005-.015.004-.023-.003-.015-.007-.022c-.725-1.559-1.825-2.889-3.19-3.856-.797-.548-2.133-.822-2.699.265s.299 2.027 1.093 2.52zm-.622-1.424c-.554-1.977 1.627-1.193 2.205-.767a9.91 9.91 0 0 1 1.053.931l1.914 2.209-2.209-.59c-.893-.253-2.659-.675-2.962-1.783z"/></g><path d="M40.374 138.212l-18.536-7.911s22.982-35.719 23.15-38.379c.152-2.352-9.944-22.843-10.339-28.816-.431-6.448 2.504-11.434 5.734-14.532l19.118 8.594s-2.017 3.41-5.183 5.31c0 0 9.804 23.687 9.246 30.97s-23.19 44.764-23.19 44.764z" fill="#37474f"/><g class="B"><path d="M41.196 134.486l-4.589-2.107c-1.316-.582-9.968-4.388-11.3-4.704-.028 0-.048.042-.02.059 1.152.746 9.876 4.392 11.204 4.948l4.673 1.871c.004.006.009.011.016.014s.013.004.02.003.013-.003.019-.007.01-.01.013-.016.005-.014.004-.021-.002-.014-.006-.02-.009-.011-.014-.015zm16.255-72.442a34.72 34.72 0 0 0-5.821 1.998c-.008.003-.015.007-.021.013s-.011.012-.014.02-.006.016-.006.024.001.017.003.025.007.015.012.022.012.012.019.015.015.006.023.006.016-.001.024-.003l5.861-1.88c.148-.055.072-.274-.08-.24z"/><path d="M55.175 61.227c-.186.349-.35.711-.49 1.083a2.6 2.6 0 0 0-.251.906c0 .063.08.076.116.038.2-.253.362-.537.479-.843l.486-1.003c.108-.249-.215-.409-.339-.181z"/><path d="M55.414 59.313l.359-.931.399-.961c0-.051.096 0 .076.038-.12.312-.195.641-.287.961l-.295.961c-.187.594-.399 1.184-.658 1.762a2 2 0 0 0 .917-.169c.296-.2.524-.496.65-.843l.494-1.045c.211-.374.389-.767.53-1.176 0-.05.096 0 .076.038a14.1 14.1 0 0 1-1.017 2.491c-.179.308-.319.632-.646.75a2.56 2.56 0 0 1-1.089.08c-.048 0-.104 0-.088-.076l.578-1.88zm-.813 3.937l1.914 4.556 1.766 4.493 3.058 9.272 1.22 4.691a35.44 35.44 0 0 1 .885 4.788c.16 1.614.025 3.245-.399 4.805a29.08 29.08 0 0 1-1.687 4.481c-.419.91-.558.788-.359.328.57-1.306 2.065-5.264 1.958-8.589a26.1 26.1 0 0 0-.694-4.716l-1.176-4.742-2.895-9.15-1.794-5.058-1.866-5.1c-.02-.076.048-.105.068-.059zM40.53 58.222c.331-.131.797.084 1.132.143a9.18 9.18 0 0 0 1.312.139 8.97 8.97 0 0 0 1.304-.046c.436-.012.864-.132 1.248-.35a6.58 6.58 0 0 0 1.595-1.783 10.54 10.54 0 0 0 1.24-2.301c0-.051.084 0 .068.034l-.399 1.399a8.68 8.68 0 0 1-.614 1.243c-.384.797-.952 1.478-1.651 1.981-.77.464-1.758.422-2.616.383a9.84 9.84 0 0 1-1.479-.206c-.351-.08-.941-.139-1.164-.464-.011-.012-.018-.027-.023-.043a.12.12 0 0 1-.003-.049c.002-.017.008-.032.017-.046s.02-.026.034-.034zm-13.401 68.332l8.971-14.751 8.684-14.983c.682-1.201 1.467-2.398 1.906-3.73.479-1.446.207-2.849-.223-4.265a74.82 74.82 0 0 0-2.847-7.586l-3.353-7.397-3.19-7.447c-.797-2.449-1.12-4.986-.498-7.523s1.962-4.78 3.361-6.891l1.116-1.686c.028-.042.088 0 .06.051-1.543 2.2-3.046 4.531-3.951 7.114a12.91 12.91 0 0 0-.766 3.983 13.57 13.57 0 0 0 .602 4.076c.75 2.563 1.934 4.986 3.038 7.397l3.373 7.388a81.75 81.75 0 0 1 2.99 7.666c.371 1.159.797 2.373.766 3.616-.028 1.361-.642 2.588-1.28 3.734l-8.56 14.836-8.935 14.667-1.148 1.833c-.06.076-.163-.012-.116-.101z"/></g><path d="M60.561 34.451c1.727 4.004 10.447 9.521 14.529 10.115 2.935.421 11.858.573 14.916.08 3.588-.582.845-10.802-1.272-10.537-5.821.716-10.765 1.517-12.32 1.517-1.898 0-12.165-3.481-13.401-3.974-3.03-1.193-3.429.527-2.452 2.799z" class="D"/><path d="M60.617 35.517c2.185 3.418 9.446 9.007 9.446 9.007l1.009-2.36 3.337-7.806s-6.671-2.213-11.061-3.224a9.13 9.13 0 0 0-1.571-.236c-2.803-.16-3.046 1.669-1.16 4.619z" class="C"/><g class="B"><path d="M60.617 35.517c2.185 3.418 9.446 9.007 9.446 9.007l1.009-2.36-9.294-11.257c-2.803-.169-3.046 1.661-1.16 4.611z"/><path d="M68.755 42.939l3.632-8.429c.04-.084.104-.076.068 0a87.42 87.42 0 0 1-3.644 8.429c-.016.051-.08.034-.056 0z"/></g><path d="M87.666 34.215c3.541-.489 7.923-1.328 11.635.337a2.03 2.03 0 0 1 .993.898c1.674.717 1.858 1.766 1.858 1.766 1.367 1.172 1.415 2.276 1.415 2.276s1.962.843 1.663 2.2c-.327 1.5-3.014 0-4.968.122-4.486.295-10.766 2.036-12.061 2.255l-.534-9.854z" class="D"/><path d="M95.358 38.632a27.32 27.32 0 0 1 3.939 0 27.29 27.29 0 0 1 4.226.906c.009.003.019.003.028-.002s.015-.012.018-.022.003-.02-.001-.029-.012-.016-.021-.019a14.5 14.5 0 0 0-8.189-.877c-.064-.008-.064.046 0 .042zm-.834-4.379c2.189.118 3.557.489 5.758 1.189v-.025c-2.424-1.071-3.417-1.172-5.77-1.264-.076.034-.072.101.012.101z" class="B"/><path d="M94.879 42.53c-.57.282-.431.599.658.864s5.614.346 5.455 2.015-6.544 1.458-8.326.868-4.466-2.208-4.466-2.208c1.264-.223 4.23-1.071 6.679-1.538z" class="D"/><path d="M65.302 40.832l-.187 2.183c0-.029 0-.055.028-.08l.423-1.134h.036a6.33 6.33 0 0 1-.343 1.172l-.215.535-.164.965-.797 3.599c-.024.088-.128.067-.12-.034.028-.472.479-3.14.57-3.747a34.35 34.35 0 0 1 .714-3.477c.02-.021.06-.004.056.017z" class="B"/><g class="C"><path d="M61.156 59.996c-1.065.577-2.436 1.475-8.616.19l-1.164-.308c-5.793-1.838-12.759-9.04-13.138-9.55 0 0 9.206-15.775 20.981-20.736 1.455-.611 3.864.569 5.183 2.04.474.527 1.507 4.4 1.112 7.536s-3.297 20.252-4.358 20.829z"/><path d="M60.326 39.024a5.03 5.03 0 0 1-.259 1.964c-.05-.667.038-1.337.259-1.964zm-4.015 10.743a4.61 4.61 0 0 1-.032.995c-.038.332-.115.657-.227.969a4.38 4.38 0 0 1 .032-.999c.041-.33.117-.654.227-.965zm-6.822-8.122c.045.668-.043 1.339-.259 1.968a4.85 4.85 0 0 1 .259-1.968zm13.465 7.574c.025.333.015.668-.032.999-.038.332-.115.657-.227.969a4.39 4.39 0 0 1 .032-.999 4.57 4.57 0 0 1 .227-.969z"/><path d="M54.194 40.254a3.89 3.89 0 0 1 .941.03c.314.042.622.124.917.244a4.27 4.27 0 0 1-1.858-.274zm-7.743 7.76a4.29 4.29 0 0 1 1.858.274 4.11 4.11 0 0 1-1.858-.274zm9.123 8.399a4.27 4.27 0 0 1 1.858.274 4.13 4.13 0 0 1-1.858-.274zm-11.512-3.051a4.29 4.29 0 0 1 1.858.274 4.13 4.13 0 0 1-1.858-.274zm16.204-21.891a4.3 4.3 0 0 1 1.858.274 4.29 4.29 0 0 1-1.858-.274zm-2.252 2.689a4.03 4.03 0 0 1-.686.683 4.23 4.23 0 0 1-.797.514c.2-.255.428-.484.678-.683s.52-.375.805-.514zm-12.277 7.641a4.13 4.13 0 0 1-.69.679 3.73 3.73 0 0 1-.797.514c.205-.253.437-.48.69-.679a3.83 3.83 0 0 1 .797-.514zm15.331 3.448c-.204.255-.435.484-.69.683-.245.205-.513.378-.797.514a4.15 4.15 0 0 1 .69-.683c.246-.203.514-.375.797-.514zm-9.928 6.608c-.204.255-.435.484-.69.683a3.9 3.9 0 0 1-.797.514c.204-.255.435-.484.69-.683.247-.203.514-.375.797-.514zm13.732-15.636a4.16 4.16 0 0 1-.69.683 4.2 4.2 0 0 1-.797.514 4.16 4.16 0 0 1 .69-.683 3.9 3.9 0 0 1 .797-.514zm-.208 7.658a4.2 4.2 0 0 1-.646-.729 4.1 4.1 0 0 1-.486-.843 4.03 4.03 0 0 1 .646.725 4.66 4.66 0 0 1 .486.847zm-22.129 5.277a4.24 4.24 0 0 1-.646-.729 4.4 4.4 0 0 1-.486-.843 4.24 4.24 0 0 1 .646.729 4.21 4.21 0 0 1 .486.843zm19.438 6.275a4.03 4.03 0 0 1-.646-.725c-.191-.261-.354-.544-.486-.843a4.2 4.2 0 0 1 .646.729 4.28 4.28 0 0 1 .486.839zM52.232 37.54a4.17 4.17 0 0 1-.646-.725c-.19-.262-.353-.544-.486-.843a4.02 4.02 0 0 1 .646.725c.19.262.353.544.486.843zm.172 21.465a4.24 4.24 0 0 1-.646-.729c-.191-.261-.354-.544-.486-.843a4.03 4.03 0 0 1 .646.725 4.44 4.44 0 0 1 .486.847zm1.654-12.66a4.34 4.34 0 0 1-.642-.729c-.195-.258-.358-.542-.486-.843a4.18 4.18 0 0 1 .642.729 4.13 4.13 0 0 1 .486.843z"/></g><path d="M62.244 35.833c-1.503-.295-2.915-3.578-3.094-5.787 0-.152.702-1.353 1.503-2.857l1.411-2.925c.084-.198.574.472.574.472l1.069.843 3.529 2.862c-.84 1.066-1.554 2.236-2.125 3.486a2.19 2.19 0 0 0-.128.421c-.002.024-.002.048 0 .072-.219.834-1.292 3.696-2.739 3.414z" class="D"/><path d="M64.983 32.369c-.002.024-.002.048 0 .072a3.83 3.83 0 0 1-.61-.249c-3.864-1.913-2.161-7.384-2.161-7.384l1.515.792 3.529 2.862a17.15 17.15 0 0 0-2.125 3.485 2.19 2.19 0 0 0-.148.421zm6.308-15.573s1.766 1.184 1.774 3.292-.797 4.168-.965 4.244-.809-7.536-.809-7.536z" class="B"/><path d="M62.527 17.891c-1.061 2.213-1.005 9.188.319 10.983 1.922 2.605 5.622 3.502 7.859.927 2.165-2.495 1.942-11.582.399-13.276-2.245-2.504-7.005-1.909-8.576 1.366z" class="D"/><g class="B"><path d="M68.157 23.476s-.036.025-.032.042c.024.476-.024 1.024-.427 1.193v.025c.498-.084.554-.813.459-1.26z"/><path d="M67.746 22.991c-.726-.042-.75 1.492-.076 1.53s.682-1.496.076-1.53zm2.871.468s.036 0 .036.042c-.024.476.028 1.024.435 1.189v.025c-.502-.08-.562-.809-.471-1.256z"/><path d="M71.028 22.97c.722-.046.758 1.488.088 1.53s-.694-1.492-.088-1.53zm-3.736-1.146c.191-.057.378-.125.562-.202.209-.04.4-.153.542-.32a.34.34 0 0 0 .041-.204c-.008-.071-.038-.137-.085-.188a.74.74 0 0 0-.37-.158c-.135-.017-.271.004-.395.062-.269.076-.502.255-.654.502-.03.059-.044.125-.04.192s.027.131.065.184.089.095.148.118.124.029.185.015zm4.23.678a5.61 5.61 0 0 1-.574-.169.94.94 0 0 1-.554-.291.33.33 0 0 1-.053-.2c.004-.071.031-.139.076-.192a.74.74 0 0 1 .361-.179.72.72 0 0 1 .397.04 1.11 1.11 0 0 1 .678.464.36.36 0 0 1-.003.377.33.33 0 0 1-.143.126.31.31 0 0 1-.185.023zm-4.386 5.479c.108.114.211.265.375.282a1.14 1.14 0 0 0 .486-.11s.028 0 0 .025a.61.61 0 0 1-.254.208.57.57 0 0 1-.32.04.48.48 0 0 1-.235-.155.53.53 0 0 1-.116-.266c-.003-.009-.003-.019.001-.027s.01-.015.019-.019.018-.003.026.001.015.011.018.02zm2.608-2.031v1.041c-.613-.069-1.231-.046-1.838.067-.144.034-.128-.088.036-.169.489-.236 1.033-.312 1.563-.219.032-.088-.052-1.096 0-1.092a2.56 2.56 0 0 1 .694.253l-.203-4.434c0-.051.076-.059.084 0a25.2 25.2 0 0 1 .399 4.763c.004.181-.614-.143-.734-.211z"/><path d="M68.847 26.738c-.159.442-.454.814-.837 1.058-.602.257-.797-.32-.191-.843.318-.17.674-.244 1.029-.215z"/></g><path d="M68.221 27.665c-.064.055-.135.099-.211.131-.554.236-.773-.232-.327-.704.303.025.65.143.538.573z" fill="#ff99ba"/><g class="B"><path d="M62.224 23.855c.73.236 1.567-2.082 1.806-2.95.207-.784.447-3.275.482-3.448s3.19 2.204 5.016 1.639 3.066-2.314 3.094-3.127-2.257-2.879-4.23-2.984-4.649 2.529-4.649 2.529a9.67 9.67 0 0 0 .877-1.239c-.032-.093-1.308.447-1.543 1.408 0 0 .255-1.21.159-1.231s-1.089 1.011-.865 1.795c0 0-1.148 1.049-1.252 2.2s.247 5.129 1.104 5.407z"/><path d="M70.836 18.658a5.86 5.86 0 0 1-1.734.657 3.92 3.92 0 0 1-1.994-.337c-.632-.258-1.22-.626-1.738-1.087-.459-.396-.869-.881-1.36-1.235-.124-.093-.263.097-.187.215.818 1.222 1.987 2.132 3.333 2.596.625.215 1.293.256 1.937.117s1.244-.452 1.739-.909c0 0 .012-.017.004-.017z"/></g><path d="M62.986 23.649s-1.132-2.428-2.153-2.036-.399 3.751.65 4.366a1.1 1.1 0 0 0 .423.175c.151.028.305.023.454-.014a1.11 1.11 0 0 0 .413-.201 1.18 1.18 0 0 0 .305-.356l-.092-1.935z" class="D"/><path d="M61.036 22.57s-.024 0 0 .034c.726.455 1.021 1.264 1.196 2.107-.033-.089-.084-.17-.149-.236a.62.62 0 0 0-.229-.148c-.086-.031-.177-.043-.267-.033s-.177.04-.255.089c-.024 0 0 .046 0 .046.143-.023.289 0 .418.068s.235.177.304.311c.114.225.205.462.271.708.024.08.156.059.144-.029.172-1.049-.387-2.638-1.431-2.916z" class="B"/><g class="D"><path d="M55.51 34.489c-.797 4.775 4.099 20.863 7.237 23.868 4.669 4.468 13.301 7.405 16.431 8.362 1.364.421 5.135-9.723 3.756-10.393-2.954-1.42-12.133-4.455-13.006-5.213s-6.136-8.796-8.481-13.424c-3.138-6.229-5.542-5.614-5.937-3.199z"/><path d="M80.609 55.431l6.703 1.947c1.467.476 3.915 1.526 4.844 2.394 1.388 1.302 6.403 7.675 4.968 8.994-1.3 1.197-4.952-4.859-4.952-4.859s4.195 5.766 2.392 6.899-5.1-6.288-5.1-6.288 4.183 6.027 2.137 6.883c-1.547.645-4.864-5.901-4.864-5.901s3.564 5.205 1.994 5.943c-1.73.818-5.148-5.024-5.148-5.024-4.274 1.168-6.778-.126-8.425-1.264-.387-.278 5.45-9.723 5.45-9.723z"/></g><path d="M90.84 61.812l1.503 2.027 1.288 2.175a15.03 15.03 0 0 1 1.276 3.06c-.686-1.854-2.293-4.404-2.751-5.108l-1.34-2.137c-.012-.017.012-.034.024-.017zm-2.436 1.707c.885.742 2.739 3.498 3.453 5.348.032.076 0 .072-.052 0l-3.421-5.336c-.012-.013.008-.025.02-.013zm-2.34 1.079c1.1 1.219 1.969 2.65 2.56 4.215.028.076-.028.063-.072 0l-2.532-4.177c-.016-.038.02-.076.044-.038z" class="B"/><g class="C"><path d="M59.959 34.839c-3.64-5.441-5.817-3.427-5.088 2.482.686 5.526 2.516 12.109 2.516 12.109l9.17-4.704-6.599-9.888z"/><path d="M62.172 36.98a4.52 4.52 0 0 1 .259.957 4.62 4.62 0 0 1 .06.999c-.12-.309-.205-.631-.255-.961a4.35 4.35 0 0 1-.064-.995zm-5.434 3.308a4.16 4.16 0 0 1 1.846-.337 3.92 3.92 0 0 1-.905.27 3.7 3.7 0 0 1-.941.068zm.235-8.463a4.71 4.71 0 0 1-1.081 1.623 4.71 4.71 0 0 1 1.081-1.623zm7.771 11.005a4.48 4.48 0 0 1-.459.872 4.2 4.2 0 0 1-.622.75 4.71 4.71 0 0 1 1.081-1.623zm-6.379 3.3a3.9 3.9 0 0 1-.825-.485 4.09 4.09 0 0 1-.71-.657 4.46 4.46 0 0 1 1.535 1.142z"/></g><path d="M61.156 36.478l1.499 2.107-.335-1.075h.024l.311.843.144.422.032.089 1.164 1.644 1.324 2.015 1.356 2.192c.044.059-.797.421-.889.468s-.139-.034-.052-.063.758-.464.766-.472l-1.403-1.972-1.356-1.994-2.612-4.151.028-.051zm-6.069 4.754l.399.864.151.367-.618-3.157 1.24 5.121 1.037 4.956a5.02 5.02 0 0 1 .861-.308 4.17 4.17 0 0 1-.949.485l-1.196-5.159-.287-1.416-.351-.843-.347-.898c.024-.017.052-.034.06-.013zm2.436 6.571l7.799-4.215c.084-.038.128 0 .044.059a78.9 78.9 0 0 1-7.815 4.215c-.032.008-.064-.038-.028-.059z" class="B"/><g class="C"><path d="M203.626 158.607H82.144L99.708 53.303h121.481l-17.563 105.304z"/><path d="M141.286 42.395H101.53l-1.822 10.908h42.547l-.969-10.908z"/></g><g opacity=".1" fill="#000"><path opacity=".1" d="M203.626 158.607H82.144L99.708 53.303h121.481l-17.563 105.304z"/><path opacity=".1" d="M141.286 42.395H101.53l-1.822 10.908h42.547l-.969-10.908z"/></g><path d="M97.24 46.846a8.53 8.53 0 0 1 0-3.667 8.53 8.53 0 0 1 0 3.667zm-3.533 1.079a7.16 7.16 0 0 1-1.041-1.484 7.55 7.55 0 0 1-.698-1.686 7 7 0 0 1 1.041 1.479c.298.531.532 1.098.698 1.69zm-2.552 2.803a7.56 7.56 0 0 1-3.002-1.833 6.66 6.66 0 0 1 1.595.733 7.05 7.05 0 0 1 1.407 1.1zm-.893 3.776a7.24 7.24 0 0 1-3.469 0 7.24 7.24 0 0 1 3.469 0zm1.037 3.734a7.1 7.1 0 0 1-1.403 1.1 6.66 6.66 0 0 1-1.595.733c.421-.429.893-.799 1.404-1.1a6.49 6.49 0 0 1 1.595-.733zm2.647 2.694c-.339 1.186-.933 2.274-1.734 3.178a7.31 7.31 0 0 1 .698-1.686c.284-.542.633-1.043 1.037-1.492zm3.573.931c.139.6.206 1.216.199 1.833.009.618-.059 1.234-.199 1.833a7.34 7.34 0 0 1-.199-1.833c-.007-.618.06-1.234.199-1.833zm3.532-1.058a7.16 7.16 0 0 1 1.041 1.484 7.28 7.28 0 0 1 .694 1.686c-.802-.904-1.395-1.992-1.735-3.178v.008zm2.548-2.824c.56.17 1.096.417 1.595.733a6.81 6.81 0 0 1 1.403 1.1 6.52 6.52 0 0 1-1.594-.733c-.511-.301-.983-.671-1.404-1.1zm.881-3.776a7.26 7.26 0 0 1 3.473 0 7.26 7.26 0 0 1-3.473 0zm-1.02-3.734c.422-.427.893-.795 1.403-1.096a6.38 6.38 0 0 1 1.595-.738c-.856.847-1.884 1.475-3.006 1.833h.008zm-2.652-2.693c.164-.59.397-1.157.694-1.686.285-.54.634-1.039 1.04-1.484a7.29 7.29 0 0 1-.693 1.686 7.16 7.16 0 0 1-1.041 1.484z" class="B"/><path d="M203.446 158.607H81.705L64.417 57.126h121.745l17.284 101.481z" class="C"/><g class="B"><path d="M106.605 119.161c2.795 0 5.06-2.394 5.06-5.348s-2.265-5.348-5.06-5.348-5.059 2.394-5.059 5.348 2.265 5.348 5.059 5.348zm40 0c2.794 0 5.06-2.394 5.06-5.348s-2.266-5.348-5.06-5.348-5.06 2.394-5.06 5.348 2.265 5.348 5.06 5.348zm-12.731.856l-.279-.56c-.024-.051-2.64-5.159-7.899-5.159-4.785 0-5.981 4.809-6.013 5.015l-.143.611-1.16-.295.139-.615c0-.059 1.428-5.981 7.177-5.981 5.981 0 8.84 5.597 8.959 5.838l.279.556-1.06.59zm61.534-6.613l-.084-.421.77-.194.1.421-.786.194zm2.329-.678l-.128-.397 1.479-.594.156.388-1.507.603zm2.97-1.345l-.179-.371 1.375-.843.208.359a10.04 10.04 0 0 1-1.404.855zm2.743-1.783l-.235-.341 1.236-1.041.263.316-1.268 1.083.004-.017zm2.432-2.242l-.291-.291 1.033-1.264.315.257a17.37 17.37 0 0 1-1.049 1.315l-.008-.017zm1.974-2.697l-.339-.224a12.38 12.38 0 0 0 .734-1.466l.367.173a14.62 14.62 0 0 1-.766 1.534l.004-.017zm1.32-3.127l-.399-.119a11.44 11.44 0 0 0 .323-1.614l.399.055c-.066.573-.176 1.14-.327 1.694l.004-.016zm.442-3.372h-.398v-.122l-.076-1.538.399-.042.079 1.581-.004.122zm-.717-3.3l-.399-1.61.399-.127c.163.548.303 1.104.398 1.648l-.398.089zm-.945-3.174l-.654-1.522.359-.19.662 1.551-.367.16zm-1.396-3.005l-.797-1.441.339-.223.797 1.458-.339.207zm-1.666-2.862l-.89-1.399.331-.236.89 1.408-.331.228zm-1.795-2.79l-.897-1.395.331-.236.893 1.391-.327.24zm-1.782-2.807l-.853-1.433.339-.219.849 1.425-.335.228zm-1.663-2.895l-.749-1.5.359-.19.737 1.484-.347.207zm-1.415-3.034l-.574-1.585.399-.135.562 1.555-.387.164zm-1.037-3.216l-.335-1.686.399-.067.327 1.627-.391.127zm-.534-3.372l-.06-1.564v-.139h.399v.135l.06 1.53-.399.038zm.399-3.372l-.399-.042c0-.114.02-.232.032-.354l.179-1.332.399.072-.175 1.307a.91.91 0 0 1-.016.362l-.02-.013zm.554-3.279l-.399-.114.511-1.618.37.152a16.16 16.16 0 0 0-.462 1.593l-.02-.013zm19.868-2.457c-.223 0-.454-.034-.682-.067l-.929-.164.08-.422.905.16.646.063-.02.43zm1.639-.131l-.084-.422a4.46 4.46 0 0 0 1.42-.582l.207.358a4.82 4.82 0 0 1-1.523.657l-.02-.013zm-20.359-.502l-.355-.198c.254-.503.535-.989.842-1.458l.327.24a13.83 13.83 0 0 0-.794 1.429l-.02-.013zm15.55-.025a15.02 15.02 0 0 1-1.515-.603l.164-.388c.479.225.97.421 1.471.586l-.12.405zm7.576-1.315l-.331-.236c.284-.435.452-.943.487-1.471l.398.029c-.034.605-.221 1.188-.542 1.69l-.012-.013zm-10.526-.063a14.56 14.56 0 0 1-1.352-.94l.235-.337a14.16 14.16 0 0 0 1.316.91l-.199.367zm-10.805-1.315l-.296-.282a13.64 13.64 0 0 1 1.153-1.201l.263.316a13.92 13.92 0 0 0-1.109 1.18l-.011-.013zm8.209-.712c-.397-.387-.774-.796-1.128-1.227l.299-.278a15.23 15.23 0 0 0 1.096 1.193l-.267.312zm12.978-1.142a4.09 4.09 0 0 0-.929-1.264l.264-.316c.423.387.771.858 1.024 1.387l-.359.194zm-18.827-.333l-.227-.346a15.33 15.33 0 0 1 1.383-.889l.188.371c-.458.268-.903.56-1.332.877l-.012-.013zm3.724-1.096l-.439-.7-.518.215-.151-.388.458-.194-.211-.379.347-.206.243.421.682-.24.115.422-.582.202.399.603-.343.244zm12.891-.725a8.24 8.24 0 0 0-1.197-.514l-.263-.088.116-.422.271.093c.427.144.843.323 1.244.535l-.171.396zm-10.838-.754l-.083-.422 1.595-.303.059.422-1.559.316-.012-.013zm7.855-.228l-1.563-.215.032-.421 1.595.219-.064.417zm-4.725-.245l-.028-.421 1.42-.046h.195v.422h-.191l-1.384.059-.012-.013zm-6.738-1.007l-.578-1.593.399-.131.562 1.555-.383.169zm-1.009-3.237l-.295-1.686.399-.059.287 1.644-.391.101zm-.446-3.372l-.032-1.155v-.548h.398v.539l.028 1.13-.394.034zm.474-3.372l-.399-.042.224-1.686.398.072-.235 1.665.012-.008zm.546-3.292l-.398-.101.438-1.64.399.131-.451 1.618.012-.008zm.957-3.19l-.37-.152.641-1.564.359.186a17.25 17.25 0 0 0-.642 1.555l.012-.025zm1.372-3.005l-.347-.215.865-1.433.327.24-.857 1.416.012-.008zm1.798-2.744l-.311-.265 1.065-1.264.287.291a15.2 15.2 0 0 0-1.053 1.248l.012-.008zm2.169-2.428l-.267-.312 1.224-1.104.247.333-1.216 1.092.012-.009zm2.476-2.082l-.227-.35 1.352-.923.203.358-1.34.923.012-.008zm2.708-1.741l-.188-.371 1.443-.754.168.383-1.435.75.012-.008zm2.882-1.399l-.147-.396 1.511-.577.127.421-1.503.561.012-.008zm3.074-1.065l-.099-.421.797-.194.072.421-.77.194z"/><path d="M229.144 15.354c-1.017-3.33-7.827-2.133-6.499 2.221s7.515 1.113 6.499-2.221z"/></g><path d="M218.94 14.022c.052-1.463 1.974-2.588 4.693-2.069s5.275 2.457 5.275 2.457-2.683 1.72-5.43 2.036-4.589-.965-4.538-2.423z" class="E"/><g class="B"><path d="M228.908 14.402c-1.411 0-2.818-.042-4.226-.088l-4.226-.24 4.23.084 4.222.244z"/><path d="M221.672 12.72a11.76 11.76 0 0 1 2.252 1.488 10.56 10.56 0 0 1-1.164-.674 12.02 12.02 0 0 1-1.088-.813zm3.696 1.543a12.86 12.86 0 0 1-2.333 1.593 12.87 12.87 0 0 1 2.345-1.593h-.012zm.41-.822a2.91 2.91 0 0 1 1.029.877c-.201-.1-.39-.226-.562-.375a3.02 3.02 0 0 1-.467-.502z"/></g><path d="M221.532 22.683c.849 1.155 3.03.877 4.948-1.222s2.935-5.256 2.935-5.256-3.142.253-5.538 1.686-3.198 3.633-2.345 4.792z" class="E"/><g class="B"><path d="M229.415 16.205l-3.385 2.685-3.29 2.807 3.381-2.68 3.294-2.811z"/><path d="M224.463 22.03a12.48 12.48 0 0 0 .57-1.264c.167-.432.313-.879.431-1.332a11.97 11.97 0 0 0-.571 1.264 12.54 12.54 0 0 0-.43 1.332zm2.161-3.523a12.48 12.48 0 0 0-2.791.156c.465.029.931.029 1.395 0a11.75 11.75 0 0 0 1.396-.156zm.769.417a3.05 3.05 0 0 0 .247-.657 3.26 3.26 0 0 0 .104-.695 3.28 3.28 0 0 0-.351 1.353z"/></g><g fill="#455a64"><path d="M229.144 15.354c-.226.077-.467.082-.695.014a1.19 1.19 0 0 1-.585-.397 1.3 1.3 0 0 1-.278-.673 1.33 1.33 0 0 1 .124-.723 1.23 1.23 0 0 1 .482-.529c.207-.122.443-.176.679-.155s.461.114.647.27a1.27 1.27 0 0 1 .395.604 1.33 1.33 0 0 1-.074.963c-.144.298-.394.523-.695.626z"/><path d="M229.877 17.761c-.225.077-.466.082-.694.014a1.19 1.19 0 0 1-.584-.396 1.3 1.3 0 0 1-.278-.673 1.32 1.32 0 0 1 .123-.722c.107-.223.275-.407.481-.529s.443-.177.679-.157a1.16 1.16 0 0 1 .646.268c.186.155.324.365.397.602a1.33 1.33 0 0 1 .054.49 1.3 1.3 0 0 1-.127.475 1.24 1.24 0 0 1-.289.387 1.18 1.18 0 0 1-.408.241z"/></g><path d="M99.157 16.686c-.191 1.936-.887 3.778-2.011 5.32s-2.63 2.723-4.353 3.413-3.591.859-5.399.491-3.484-1.26-4.84-2.577l-4.972.771 2.488-4.543c-.569-1.478-.812-3.074-.71-4.667s.546-3.139 1.298-4.523a10.3 10.3 0 0 1 3.043-3.464c1.25-.895 2.677-1.477 4.171-1.702s3.018-.087 4.455.403 2.749 1.321 3.837 2.427 1.923 2.461 2.441 3.96a11.06 11.06 0 0 1 .551 4.691z" class="C"/><path d="M99.157 16.686c-.187 1.935-.877 3.777-1.994 5.323-.545.782-1.203 1.469-1.95 2.036-.73.588-1.535 1.064-2.392 1.412-.857.357-1.758.584-2.675.674a9.44 9.44 0 0 1-1.38.029c-.462-.013-.922-.063-1.376-.152-1.832-.356-3.535-1.245-4.916-2.567l.116.038-4.964.805-.363.059.183-.337 2.472-4.552v.181a11.16 11.16 0 0 1-.725-4.756 11.05 11.05 0 0 1 1.339-4.605c.773-1.402 1.837-2.6 3.11-3.507a9.79 9.79 0 0 1 4.231-1.691c1.513-.219 3.053-.073 4.505.427 1.437.517 2.746 1.366 3.832 2.487s1.912 2.481 2.422 3.988.69 3.116.524 4.707zm0 0c.161-1.583-.024-3.184-.541-4.679a10.46 10.46 0 0 0-2.441-3.944 9.73 9.73 0 0 0-3.839-2.398 9.32 9.32 0 0 0-4.446-.358c-1.474.231-2.877.816-4.103 1.711a10.63 10.63 0 0 0-2.974 3.431c-.733 1.361-1.165 2.88-1.264 4.442a11.02 11.02 0 0 0 .702 4.611l.036.093-.048.088-2.504 4.535-.175-.278 4.976-.738h.068l.048.046c1.33 1.309 2.979 2.2 4.761 2.575.444.096.895.153 1.348.173.453.034.907.034 1.36 0 .908-.077 1.801-.286 2.655-.619a9.2 9.2 0 0 0 2.392-1.366 9.34 9.34 0 0 0 1.954-2.01c1.131-1.538 1.836-3.378 2.037-5.315z" class="B"/><path d="M84.417 20.492c-.008-.14.012-.279.057-.41a1.03 1.03 0 0 1 .207-.352c.091-.101.201-.181.323-.236a.92.92 0 0 1 .385-.08c.271 0 .53.114.722.316a1.11 1.11 0 0 1 .299.763 1.11 1.11 0 0 1-.299.763c-.191.202-.451.316-.722.316a.92.92 0 0 1-.385-.08.96.96 0 0 1-.323-.236 1.03 1.03 0 0 1-.207-.352c-.045-.131-.065-.271-.057-.41zm.399-2.491l-.231-8.362h1.595l-.231 8.362h-1.132zm3.393 2.491a1.07 1.07 0 0 1 .057-.409 1.03 1.03 0 0 1 .206-.352.97.97 0 0 1 .322-.236.92.92 0 0 1 .384-.082c.271 0 .53.114.722.316a1.11 1.11 0 0 1 .299.763 1.11 1.11 0 0 1-.299.763c-.191.202-.451.316-.722.316a.92.92 0 0 1-.384-.082.98.98 0 0 1-.322-.236 1.03 1.03 0 0 1-.206-.352 1.07 1.07 0 0 1-.057-.409zm.399-2.491l-.219-8.362h1.595l-.231 8.362h-1.144zm3.389 2.491c-.008-.14.012-.279.057-.41a1.03 1.03 0 0 1 .207-.352c.091-.101.201-.181.323-.236a.92.92 0 0 1 .385-.08c.271 0 .53.114.722.316a1.11 1.11 0 0 1 .299.763 1.11 1.11 0 0 1-.299.763c-.191.202-.451.316-.722.316a.92.92 0 0 1-.385-.08.96.96 0 0 1-.323-.236 1.03 1.03 0 0 1-.207-.352c-.046-.131-.065-.271-.057-.41zm.399-2.491l-.231-8.362h1.595l-.227 8.362h-1.136z" class="C"/></svg>